<?xml version="1.0" standalone="no"?>
<!DOCTYPE svg PUBLIC "-//W3C//DTD SVG 1.1//EN" "http://www.w3.org/Graphics/SVG/1.1/DTD/svg11.dtd" >
<svg xmlns="http://www.w3.org/2000/svg">
<metadata>Generated by IcoMoon</metadata>
<defs>
<font id="icomoon" horiz-adv-x="512">
<font-face units-per-em="512" ascent="480" descent="-32" />
<missing-glyph horiz-adv-x="512" />
<glyph unicode="&#x20;" d="" horiz-adv-x="256" />
<glyph unicode="&#xe600;" d="M249.893 435.337c-11.155-5.45-19.16-13.88-21.715-22.992-0.596-2.129-1.362-4.173-1.703-4.598-1.362-1.533-4.087 6.727-4.684 13.795-0.34 3.832-0.851 6.983-1.107 6.983-1.278 0-6.302-3.662-9.367-6.813-7.323-7.494-12.773-19.501-12.859-27.761 0-4.087-0.171-4.428-2.214-4.939-1.278-0.341-2.555-0.256-2.895 0.085s-2.98 3.406-5.791 6.727c-10.559 12.433-25.547 22.226-38.831 25.462-18.394 4.429-40.023-0.937-52.115-13.114-7.238-7.238-7.238-7.409-0.852-8.516 11.241-1.959 20.778-6.558 25.972-12.433 3.066-3.577 4.002-8.686 2.98-16.52l-0.766-5.62-4.428-0.596c-10.559-1.533-18.819-7.069-22.055-14.732-3.066-7.323-0.596-19.756 5.876-29.549 3.322-5.195 3.491-5.62 3.832-13.54 0.171-4.513-0.085-10.985-0.681-14.391-1.107-6.727-0.937-6.472-9.793-13.966-6.558-5.62-9.281-11.41-9.281-19.671 0-13.54 7.494-21.97 30.996-34.829 10.899-6.046 11.070-6.131 14.477-12.603 2.384-4.343 2.81-6.302 3.236-12.517 0.34-6.727-0.851-32.529-2.129-44.537l-0.511-5.024-3.406 3.236c-5.62 5.365-11.495 15.072-13.966 23.163-1.192 4.002-2.384 7.494-2.64 7.749-0.171 0.255-2.044-1.447-4.173-3.832-4.428-5.024-9.877-15.668-11.921-23.418-1.959-7.324-1.959-23.673 0-32.274 3.747-16.69 14.306-30.23 29.549-37.894 7.238-3.577 8.26-4.428 10.304-8.175 8.686-15.924 24.269-28.612 40.79-33.125 3.491-1.022 7.238-1.788 8.26-1.788s4.769-1.873 8.26-4.087c12.944-8.515 25.802-11.666 46.921-11.581 11.922 0 15.839 0.341 22.055 1.873 9.623 2.384 17.542 5.705 24.099 10.219 2.896 1.959 6.131 3.577 7.238 3.577s4.854 0.767 8.345 1.788c16.52 4.513 32.103 17.201 40.79 33.125 2.044 3.747 3.066 4.598 10.303 8.175 11.070 5.536 19.671 13.966 24.526 24.185 4.94 10.219 6.387 17.031 6.473 29.805 0 12.517-1.277 18.394-6.302 28.527-3.066 6.216-10.389 15.924-11.241 14.902-0.255-0.255-1.447-3.662-2.64-7.664-1.277-4.002-3.832-9.793-5.791-12.773-3.832-6.046-9.111-11.921-10.644-11.921-1.277 0-1.788 4.343-2.98 24.269-1.362 22.737-0.851 29.464 2.64 36.021 3.406 6.473 3.577 6.558 14.477 12.603 23.503 12.859 30.997 21.29 30.997 34.829 0 8.26-2.725 14.050-9.281 19.671-8.856 7.494-8.686 7.238-9.793 13.966-0.596 3.406-0.851 9.877-0.682 14.391 0.341 7.92 0.511 8.345 3.832 13.539 6.473 9.793 8.941 22.226 5.876 29.549-3.236 7.664-11.495 13.199-22.055 14.732l-4.428 0.596-0.767 5.62c-1.022 7.834-0.085 12.944 2.98 16.521 5.195 5.876 14.732 10.474 25.973 12.433 6.387 1.107 6.387 1.277-0.851 8.515-12.092 12.177-33.722 17.542-52.115 13.114-13.284-3.236-28.272-13.029-38.831-25.462-2.81-3.322-5.45-6.387-5.791-6.727-0.341-0.426-2.214-0.255-4.173 0.255-2.64 0.682-3.577 1.448-4.002 3.151-0.937 3.491 0.851 12.859 3.918 20.267 1.447 3.747 2.98 7.324 3.236 8.005 0.341 1.022-0.341 1.107-3.747 0.596-5.195-0.681-14.050-4.769-18.819-8.686-2.044-1.618-4.002-2.81-4.428-2.555-1.107 0.767-3.491 11.581-3.491 16.010 0 2.044 0.511 5.705 1.192 8.175 0.767 3.066 0.851 4.428 0.171 4.428-0.511 0-4.002-1.533-7.834-3.406z" />
<glyph unicode="&#xe601;" d="M159.047 336.204l-78.978-73.169-0.181-28.505v-28.505l73.169-67.541c40.125-37.22 76.074-70.445 79.887-74.077l6.718-6.354v69.719l-60.278 52.653c-33.226 29.050-60.641 53.379-61.005 54.286-0.181 0.726 26.871 25.418 60.459 54.649l60.822 53.197v33.226c0 18.337-0.363 33.407-0.726 33.407s-36.312-32.863-79.887-72.987zM344.964 375.966v-33.589l62.639-53.197c34.497-29.231 62.457-53.742 62.275-54.468-0.363-0.726-28.142-24.692-61.912-53.379s-61.912-53.197-62.275-54.286c-0.363-1.089-0.545-16.885-0.363-35.041l0.545-33.044 79.524 72.624 79.342 72.624-0.182 30.321v30.321l-74.44 68.085c-40.851 37.401-76.8 70.082-79.705 72.442l-5.447 4.358v-33.77z" horiz-adv-x="619" />
<glyph unicode="&#xe602;" d="M216.902 434.784c-37.769-7.58-70.084-25.135-93.889-50.934-25.401-27.529-40.162-55.19-47.211-88.437-3.591-16.49-4.921-51.599-2.793-70.084 5.984-51.067 28.193-100.139 59.711-132.056 17.821-18.086 30.587-25.534 43.886-25.534 11.437 0 16.225 2.261 25.799 12.102 5.054 5.053 9.043 8.91 9.043 8.777 0-0.266 3.059-8.511 6.649-18.352 7.315-19.549 10.506-23.805 19.948-26.598 4.256-1.33 6.782-1.33 12.501 0.133 6.251 1.463 7.979 1.33 14.097-0.665 10.506-3.457 18.086-2.261 28.193 4.522 7.58 5.187 8.91 5.586 14.363 5.053 3.325-0.399 8.245-0.133 11.038 0.665 6.916 2.128 15.161 9.575 17.022 15.426 0.931 2.925 3.058 5.985 5.586 7.58 7.182 4.788 9.575 9.309 9.575 18.352 0 7.846-0.665 9.309-11.703 29.922-6.517 11.969-11.437 22.076-11.038 22.608 0.532 0.399 5.187-0.665 10.506-2.261 13.964-4.389 27.661-3.724 34.842 1.729 4.123 3.192 5.452 3.591 7.182 2.261 5.452-3.99 12.235-5.985 21.677-6.517 12.767-0.665 21.278 1.995 28.725 8.777l5.32 4.921h13.697c13.166 0 14.229 0.266 21.943 4.389 11.171 6.118 15.293 10.639 16.091 17.82l0.665 5.851 7.846 1.729c9.309 1.862 17.821 7.846 21.544 15.293 3.324 6.384 4.521 22.874 2.394 31.119-5.452 19.682-41.359 31.784-133.12 44.684-17.953 2.527-36.039 5.053-40.162 5.452-6.517 0.798-7.713 1.33-7.713 3.59 0 4.655 4.255 11.703 8.112 13.697 6.517 3.458 9.974 2.527 13.298-3.324l3.058-5.32h12.102c20.214 0 36.837 6.783 48.806 19.815 11.304 12.235 14.096 19.948 21.544 59.046 2.394 12.767 9.176 26.997 18.086 37.902 3.724 4.654 6.517 8.777 6.25 9.043-0.399 0.399-4.788 1.064-9.841 1.463-17.82 1.463-42.157-5.851-60.775-18.352-11.57-7.713-26.731-23.139-32.848-33.38-2.394-4.256-5.32-7.713-6.517-7.713-1.064 0-5.586 1.064-9.974 2.394-5.719 1.729-8.378 3.325-9.575 5.719-0.798 1.729-4.389 9.043-7.713 16.091-12.235 25.534-35.641 44.683-62.903 51.732-13.166 3.325-36.040 3.325-53.328-0.133zM444.709 398.346c-5.586-10.506-8.112-17.422-10.639-29.523-2.261-11.038-10.506-38.034-13.431-43.487l-1.862-3.724-4.255 2.925c-2.394 1.596-7.713 6.25-11.836 10.24l-7.58 7.315 6.517 12.767c3.591 7.048 9.841 17.156 13.964 22.475l7.315 9.708-6.118-4.389c-7.447-5.186-16.091-15.692-22.874-27.13-2.659-4.654-5.719-8.511-6.783-8.511-2.659 0-12.102 5.586-12.102 7.315 0 2.659 9.309 17.156 14.363 22.342 14.495 15.161 42.024 29.656 56.918 30.055 2.793 0.133 2.659-0.266-1.596-8.378zM257.463 372.945c16.49-5.053 27.529-20.081 27.529-37.635 0-35.242-42.29-52.796-67.291-27.795-7.181 7.182-10.639 15.56-11.304 27.529-0.532 9.309-0.266 10.506 3.857 18.485 5.186 9.841 11.57 15.427 21.411 18.884 8.644 3.058 17.155 3.192 25.8 0.532zM355.209 347.811c7.048-2.394 17.555-7.048 23.406-10.506 11.038-6.517 21.544-14.762 20.347-16.091-0.399-0.399-5.187 0.532-10.639 1.995-14.894 3.989-28.991 3.59-40.561-0.931-7.447-2.926-11.437-3.591-19.948-3.591-10.506 0-10.639 0-5.985-1.862 5.053-2.128 12.767-1.862 25.534 1.064 7.979 1.862 10.772 1.064 7.58-2.128-1.995-1.995-29.656-14.762-33.645-15.56-3.724-0.665-5.851 6.783-5.985 20.347-0.133 13.166 2.128 21.012 7.979 28.326 4.123 4.921 4.255 4.921 11.703 4.123 4.123-0.532 13.166-2.792 20.214-5.186zM377.683 319.086c1.463-1.463 2.659-3.591 2.659-4.788 0-1.596 0.798-1.197 2.793 1.33 2.128 2.659 3.457 3.324 5.719 2.659 1.463-0.532 6.118-1.596 10.107-2.394 4.654-0.931 7.315-2.128 7.315-3.325 0-3.989-30.986-12.368-34.709-9.309-1.729 1.463-4.788 15.56-3.724 17.288 1.33 2.128 7.181 1.197 9.841-1.463zM340.181 264.561c4.921-0.665 20.347-2.793 34.178-4.655 22.076-3.059 78.064-12.767 84.846-14.762 1.33-0.399 2.128-1.064 1.862-1.463-1.463-1.463-64.233-7.048-80.723-7.181l-17.953-0.133 14.628-3.059c8.112-1.596 21.943-4.256 30.986-5.984 17.953-3.191 19.682-4.388 15.293-10.373-4.389-6.118-13.298-9.841-21.278-9.043-6.916 0.665-7.048 0.532-7.048-3.058 0-9.442-13.298-19.416-25.933-19.416-3.591 0-9.043 0.532-12.102 1.064-4.921 0.931-5.452 0.798-6.783-2.128-3.457-7.58-21.943-11.304-32.848-6.517-3.325 1.596-6.118 2.659-6.118 2.527 0-0.266 1.862-5.985 3.99-12.899l4.123-12.501-2.659-8.644c-9.176-30.055-36.039-50.934-67.957-52.929-38.699-2.261-88.171 18.219-115.034 47.875-11.038 11.969-31.518 43.62-29.656 45.481 0.266 0.266 4.522-0.665 9.575-1.995 20.347-5.719 47.477-4.788 61.041 2.128 6.517 3.192 6.517 3.192 13.964 0.931 5.851-1.862 12.235-2.394 27.529-2.394 18.352 0.133 20.746 0.399 30.587 3.856 21.544 7.447 39.364 21.943 53.195 43.354 8.511 13.166 19.017 26.997 23.538 30.986 3.058 2.66 4.654 2.66 16.757 0.931zM236.052 357.386c-8.644-4.654-14.23-13.165-14.23-21.544 0-7.315 1.729-11.304 7.048-16.49 9.442-9.176 23.139-9.176 32.848 0.133 10.639 10.373 7.713 31.119-5.452 37.236-5.32 2.527-16.225 2.925-20.214 0.665zM255.069 352.067c11.969-7.315-3.191-18.086-18.219-12.899-8.378 2.925-8.644 10.107-0.399 13.564 9.575 3.99 10.905 3.99 18.618-0.665z" horiz-adv-x="587" />
<glyph unicode="&#xe603;" d="M169.165 426.307c-17.628-4.545-31.674-15.287-38.56-29.471-7.023-14.598-8.538-38.699-4.683-74.781 1.102-11.155 2.203-26.441 2.341-34.017 0.138-11.844-0.275-14.736-3.030-20.382-4.407-9.089-12.945-13.91-29.334-16.802l-5.233-0.827v-36.633l6.749-0.827c8.401-0.964 19.556-5.647 23.412-9.64 8.125-8.676 9.089-21.209 4.82-61.835-2.617-26.304-2.066-54.123 1.515-65.829 4.407-14.461 13.634-25.615 26.579-32.226 10.88-5.509 21.897-7.712 42.004-8.676l18.867-0.827v39.938l-9.089 0.964c-5.095 0.55-11.155 1.791-13.496 2.755-5.922 2.479-12.808 10.604-14.736 17.628-2.203 7.988-1.928 25.202 0.689 41.040 6.611 39.387 3.305 66.656-9.64 80.427-5.508 5.784-15.011 11.431-22.724 13.358-3.718 0.964-6.611 2.341-6.334 3.030 0.275 0.827 3.718 2.203 7.85 3.305 15.011 3.856 25.615 13.496 31.124 28.645 3.443 9.502 3.443 41.178 0 61.285-1.377 7.988-2.479 20.107-2.617 26.855 0 10.605 0.413 13.634 3.443 20.245 5.095 11.017 11.569 15.011 25.202 15.975l10.329 0.689v39.525l-17.49-0.138c-12.808 0-20.382-0.689-27.957-2.755zM349.574 409.23v-19.969h6.611c9.916 0 18.729-3.581 24.238-9.64 8.813-9.778 9.916-22.31 5.096-56.739-3.305-23.688-3.581-39.387-0.964-52.333 2.479-11.293 4.958-16.251 11.844-23.136 6.334-6.334 11.155-9.089 20.933-11.569 8.538-2.066 9.916-4.27 3.581-5.508-19.005-3.581-33.053-18.868-37.046-40.214-1.928-9.916-0.827-36.082 2.204-54.26 2.892-17.077 2.892-34.705 0-42.692-4.27-11.844-12.119-17.215-27.682-18.729l-8.813-0.964v-39.938l19.005 0.827c28.507 1.24 43.519 6.197 56.051 18.454 16.94 16.801 20.107 37.184 13.634 90.618-1.102 9.916-2.204 24.101-2.341 31.675-0.138 15.7 1.928 21.759 10.604 29.334 5.096 4.408 16.251 8.538 23.136 8.538h3.856v18.453c0 19.832-0.138 20.107-7.575 20.107-5.509 0-17.904 5.232-21.759 9.365-8.952 9.227-10.329 23.274-5.922 60.458 3.443 28.921 4.132 45.447 2.341 56.464-5.784 34.154-30.574 51.369-74.092 51.369h-16.94v-19.969z" horiz-adv-x="571" />
<glyph unicode="&#xe604;" d="M271.273 381.808c-14.855-1.406-22.943-4.308-51.335-18.811-21.449-10.899-29.359-13.625-41.841-14.416-13.010-0.703-21.888 3.517-21.888 10.461 0 2.285 0.528 2.901 4.219 4.483 3.517 1.583 6.593 1.934 19.953 2.461 8.702 0.351 16.526 0.879 17.405 1.319 2.725 1.142 1.231 3.428-4.219 6.154-4.923 2.461-5.889 2.637-14.504 2.549-19.075-0.176-33.052-7.032-34.721-16.965-0.703-4.396 1.055-7.56 7.383-13.537 8.879-8.263 16.79-10.636 36.567-10.636 20.218-0.087 26.195 1.494 52.917 13.801 35.249 16.35 64.081 20.745 81.749 12.306 3.956-1.846 5.099-4.131 3.78-7.383-2.286-5.45-11.692-10.108-22.24-10.988-7.999-0.703-14.152 0.528-22.416 4.659-5.538 2.725-6.944 3.076-11.164 2.725-8.702-0.704-10.812-5.451-5.010-11.251 8.966-8.966 42.896-12.306 62.85-6.154 6.505 2.022 13.010 6.417 16.262 10.899 3.076 4.308 3.692 12.043 1.406 16.877-4.044 8.526-16.174 16.438-29.36 19.163-7.296 1.494-26.722 3.252-33.755 3.076-2.461-0.087-7.911-0.44-12.043-0.791zM74.371 352.712c-11.164-6.682-14.855-10.812-14.855-16.613 0-4.044 2.022-7.209 7.648-12.219 18.020-16.086 69.707-29.096 125.876-31.733 23.119-1.055 91.068-1.055 113.922 0 34.37 1.583 69.443 7.824 99.067 17.668 26.546 8.79 37.798 21.185 29.798 32.7-3.868 5.714-10.196 11.164-12.921 11.164-2.11 0-2.197-0.176-1.582-2.813 0.351-1.582 0.615-4.044 0.527-5.451-0.704-12.833-37.007-26.81-85.442-32.963-26.635-3.341-39.644-3.956-88.781-3.956-44.214-0.087-49.401 0.087-67.246 1.933-23.558 2.549-35.952 4.572-51.335 8.614-24.174 6.329-41.314 14.24-45.885 21.185-1.758 2.725-1.494 8.966 0.615 12.306 1.67 2.725 1.494 4.659-0.352 4.659-0.967 0-5.011-2.022-9.053-4.483zM63.294 296.982c0.615-9.317 3.165-21.273 8.526-40.348l4.483-15.822-2.901-2.197c-9.669-7.471-22.591-23.119-27.249-33.051-3.693-8.087-4.483-13.801-3.956-32.084 0.44-18.108 1.583-23.558 6.769-31.557 5.274-8.263 24.261-23.998 31.997-26.459 7.032-2.286 37.183-0.704 44.303 2.286 5.274 2.197 3.517 3.341-12.13 7.824-8.352 2.461-16.438 7.911-25.931 17.493-9.668 9.757-14.153 16.877-16.701 26.81-3.076 12.043-2.549 28.743 1.406 39.117 0.879 2.461 3.516 6.856 5.714 9.668 4.835 6.065 4.219 6.417 10.724-6.065 3.692-7.12 11.427-18.988 33.843-51.95 9.141-13.449 20.569-33.579 24.877-43.863 10.285-24.526 25.404-35.776 55.292-40.875 28.304-4.835 74.63-4.396 99.77 1.055 28.569 6.154 43.248 17.933 52.742 42.808 4.747 12.13 9.844 21.449 20.13 36.567 25.931 38.063 33.755 50.896 39.116 63.905 7.56 18.371 18.899 53.358 21.976 67.949 3.165 15.207 2.725 16.35-4.396 10.548-2.901-2.286-7.911-5.538-11.339-7.209-17.933-8.614-55.466-17.229-94.495-21.536-13.976-1.583-121.57-1.583-144.16 0-18.724 1.318-36.655 3.252-42.809 4.571-2.286 0.527-8.526 1.758-13.889 2.725-21.8 3.868-51.159 15.735-59.334 23.822l-2.901 2.901 0.528-7.032z" />
<glyph unicode="&#xe605;" d="M272.864 404.13c-1.817-1.817-5.31-8.385-7.966-14.813-2.515-6.288-5.729-12.158-6.848-12.717-1.257-0.699-10.482-1.677-20.682-2.236l-18.446-0.978-6.567 14.114c-5.31 11.599-7.267 14.533-10.899 16.21-5.589 2.656-6.848 2.375-32.141-8.803-11.319-4.891-20.961-10.062-22.638-12.158-4.611-5.031-4.052-10.899 2.375-24.176 4.192-8.665 5.31-12.157 4.192-13.834-0.699-1.257-7.267-8.245-14.533-15.511l-13.276-13.135-8.105 3.074c-19.983 7.686-20.543 7.826-25.713 4.891-4.192-2.516-5.868-5.45-13.555-24.315-10.201-25.014-11.319-31.722-5.868-36.752 1.956-1.817 8.665-5.45 15.093-7.965 6.288-2.516 11.739-5.031 12.157-5.589 1.118-1.817 3.355-36.472 2.516-38.569-0.419-1.118-6.567-4.752-13.695-8.106-13.135-6.149-17.468-10.062-17.468-15.931 0-3.215 7.406-21.66 16.21-40.246 6.987-14.673 11.878-16.21 27.948-8.385 16.35 7.826 14.952 7.966 25.434-2.935 5.171-5.45 11.739-11.599 14.533-13.834l5.171-4.192-4.751-12.856c-2.655-7.127-4.891-14.813-4.891-17.188 0-6.988 5.73-11.18 25.572-18.446 25.852-9.643 29.626-10.481 34.237-7.826 4.192 2.236 5.451 4.471 11.599 19.565l4.332 10.62 18.446 0.978c10.341 0.419 19.565 0.56 20.822 0.139 1.118-0.56 4.611-6.428 7.685-13.135 9.643-20.682 10.899-21.101 36.892-9.922 28.788 12.158 29.346 12.577 31.582 18.446 1.956 5.031 1.817 5.589-4.332 19.284l-6.288 14.115 14.533 14.813 14.673 14.813 12.856-5.171c13.974-5.45 15.931-5.729 20.961-3.494 4.332 1.956 5.729 4.471 12.856 22.918 9.782 25.293 11.039 30.464 8.524 35.356-2.096 4.052-9.084 8.106-23.337 13.415l-6.428 2.515-0.978 8.385c-0.419 4.751-0.839 13.974-0.839 20.682v12.157l12.717 6.009c14.533 6.988 18.026 9.922 18.026 15.931 0 2.375-4.471 14.393-9.922 26.832-7.685 17.607-10.76 22.917-13.834 24.734-5.589 3.354-7.546 3.074-21.66-3.215-6.848-3.074-13.135-5.59-14.115-5.59-0.839 0-5.589 4.332-10.481 9.502s-11.459 11.459-14.533 13.834l-5.45 4.332 5.31 12.298c6.288 14.394 6.707 20.543 2.096 25.154-4.332 4.192-44.578 20.123-51.006 20.123-3.215 0-6.009-1.119-8.106-3.215zM254.697 304.076c42.901-8.106 69.173-51.706 55.757-91.951-6.848-20.123-18.166-32.979-37.731-42.482-28.228-13.555-58.412-8.385-80.352 13.974-14.254 14.533-20.961 30.604-20.961 50.587 0 43.459 40.945 77.838 83.287 69.871z" horiz-adv-x="493" />
<glyph unicode="&#xe606;" d="M113 150.25c-12.168 0-23.586 2.211-34.25 6.625-10.668 4.414-19.918 10.5-27.75 18.25-7.836 7.75-14.043 16.957-18.625 27.625-4.586 10.664-6.875 22.25-6.875 34.75s2.289 24.082 6.875 34.75c4.582 10.664 10.789 19.875 18.625 27.625 7.832 7.75 17.082 13.789 27.75 18.125 10.664 4.332 22.082 6.5 34.25 6.5 15.5 0 28.789-2.793 39.875-8.375 11.082-5.586 20.457-14.375 28.125-26.375l-26.75-19c-4 6.5-9.418 11.832-16.25 16-6.836 4.164-15.168 6.25-25 6.25-7.668 0-14.668-1.418-21-4.25-6.336-2.836-11.75-6.711-16.25-11.625-4.5-4.918-8-10.75-10.5-17.5s-3.75-14.125-3.75-22.125 1.25-15.418 3.75-22.25c2.5-6.836 6-12.75 10.5-17.75s9.914-8.918 16.25-11.75c6.332-2.836 13.332-4.25 21-4.25 11 0 19.832 2.332 26.5 7 6.664 4.664 12.414 10.664 17.25 18l27.25-18.75c-7.5-11.5-17.086-20.625-28.75-27.375-11.668-6.75-25.75-10.125-42.25-10.125zM262.749 150.25c-8.168 0-15.586 0.91-22.25 2.727-6.668 1.82-12.668 4.301-18 7.441-5.336 3.141-9.961 6.898-13.875 11.281-3.918 4.383-7.125 9.066-9.625 14.051l28.5 16.5c3.832-6.168 8.375-11.25 13.625-15.25s12.207-6 20.875-6c7.332 0 13.125 1.625 17.375 4.883 4.25 3.254 6.375 7.387 6.375 12.398 0 6.008-2.25 10.516-6.75 13.523-4.5 3.004-10.75 6.258-18.75 9.766l-8.75 3.758c-6.336 2.672-12.086 5.594-17.25 8.766-5.168 3.172-9.586 6.844-13.25 11.016-3.668 4.172-6.5 8.934-8.5 14.277s-3 11.602-3 18.781c0 6.512 1.207 12.605 3.625 18.281 2.414 5.676 5.832 10.602 10.25 14.777 4.414 4.172 9.789 7.43 16.125 9.766 6.332 2.336 13.414 3.508 21.25 3.508 11.164 0 20.789-2.145 28.875-6.43 8.082-4.285 15.039-11.551 20.875-21.801l-27.25-17.52c-3 5.332-6.25 9.164-9.75 11.5-3.5 2.332-7.75 3.5-12.75 3.5-5.168 0-9.25-1.414-12.25-4.242s-4.5-6.406-4.5-10.73c0-5.328 1.707-9.363 5.125-12.105 3.414-2.746 8.875-5.781 16.375-9.109l8.75-3.742c7.5-3.164 14.125-6.449 19.875-9.859 5.75-3.414 10.582-7.238 14.5-11.48 3.914-4.242 6.914-9.070 9-14.477 2.082-5.406 3.125-11.77 3.125-19.090 0-7.82-1.461-14.766-4.375-20.836-2.918-6.074-6.961-11.191-12.125-15.352-5.168-4.16-11.293-7.281-18.375-9.359-7.086-2.075-14.793-3.118-23.125-3.118zM396.996 150.25c-8.168 0-15.586 0.91-22.25 2.727-6.668 1.82-12.668 4.301-18 7.441-5.336 3.141-9.961 6.898-13.875 11.281-3.918 4.383-7.125 9.066-9.625 14.051l28.5 16.5c3.832-6.168 8.375-11.25 13.625-15.25s12.207-6 20.875-6c7.332 0 13.125 1.625 17.375 4.883 4.25 3.254 6.375 7.387 6.375 12.398 0 6.008-2.25 10.516-6.75 13.523-4.5 3.004-10.75 6.258-18.75 9.766l-8.75 3.758c-6.336 2.672-12.086 5.594-17.25 8.766-5.168 3.172-9.586 6.844-13.25 11.016-3.668 4.172-6.5 8.934-8.5 14.277s-3 11.602-3 18.781c0 6.512 1.207 12.605 3.625 18.281 2.414 5.676 5.832 10.602 10.25 14.777 4.414 4.172 9.789 7.43 16.125 9.766 6.332 2.336 13.414 3.508 21.25 3.508 11.164 0 20.789-2.145 28.875-6.43 8.082-4.285 15.039-11.551 20.875-21.801l-27.25-17.52c-3 5.332-6.25 9.164-9.75 11.5-3.5 2.332-7.75 3.5-12.75 3.5-5.168 0-9.25-1.414-12.25-4.242s-4.5-6.406-4.5-10.73c0-5.328 1.707-9.363 5.125-12.105 3.414-2.746 8.875-5.781 16.375-9.109l8.75-3.742c7.5-3.164 14.125-6.449 19.875-9.859 5.75-3.414 10.582-7.238 14.5-11.48 3.914-4.242 6.914-9.070 9-14.477 2.082-5.406 3.125-11.77 3.125-19.090 0-7.82-1.461-14.766-4.375-20.836-2.918-6.074-6.961-11.191-12.125-15.352-5.168-4.16-11.293-7.281-18.375-9.359-7.086-2.075-14.793-3.118-23.125-3.118z" />
<glyph unicode="&#xe607;" d="M70.231 420.679l34.547-364.872 146.070-38.185 143.646 41.214 35.155 361.842h-359.419zM359.643 300.369l-101.219-43.942 96.068-0.909-12.728-137.585-91.824-26.063-92.733 25.759-6.061 70.913 46.367-0.303 2.121-35.609 50.912-13.183 47.731 14.092 5 56.367h-154.101l-4.091 47.731 103.189 43.185h-106.825l-3.182 45.458h224.711l-3.333-45.912z" />
<glyph unicode="&#xe608;" d="M210.516 393.697c-22.067-2.375-63.968-12.99-74.025-18.856-8.799-5.168-16.621-14.106-26.397-30.448-19.413-32.403-27.096-65.644-23.325-101.539 1.816-18.436 4.609-28.771 10.755-41.342 7.123-14.526 15.364-23.883 41.761-47.627 17.738-15.923 23.882-22.486 25.28-26.258 2.514-7.263 0.28-12.151-7.961-18.297-10.893-7.961-10.755-15.503 0.559-22.067 3.352-1.955 9.078-4.051 12.71-4.47 6.145-0.839 6.844-0.699 11.452 3.772 15.084 14.385 22.766 37.989 16.621 50.56-1.257 2.514-5.028 7.961-8.38 12.151-24.722 30.308-27.095 35.755-19.413 41.761 6.006 4.749 10.894 3.631 33.381-7.402 22.347-11.034 28.632-15.923 31.844-25.279 5.588-15.783 6.565-39.387 2.095-51.957l-2.095-6.006 4.331-2.514c5.866-3.491 9.637-11.452 10.335-22.207l0.559-8.799 8.659-0.279c19.832-0.559 42.18 2.514 45.392 6.425 1.118 1.257 0.699 7.402-1.397 21.928-3.631 25.279-3.073 35.895 2.375 45.811 4.749 8.799 10.614 14.106 15.643 14.106 2.095 0 7.821-1.257 12.57-2.793 15.224-4.749 36.034-3.353 49.024 3.353 13.967 7.263 26.676-2.234 26.676-20.112 0-4.19-1.536-13.827-3.353-21.23l-3.212-13.687 3.073-1.955c4.609-3.073 7.543-10.476 8.519-21.649l0.978-9.916h19.274c21.23 0 30.867 1.536 40.505 6.425 10.476 5.308 10.755 6.565 6.286 43.577-5.028 43.577-4.609 61.873 1.815 69.834 18.856 23.464 29.191 43.298 34.219 66.343 1.258 5.588 4.051 4.609 10.476-3.772 5.866-7.961 13.827-14.805 16.9-14.805 4.888 0-2.933 31.566-13.129 53.912-20.671 44.694-65.225 79.751-113.271 88.969-29.61 5.727-57.822 6.285-84.918 1.536-18.017-3.073-19.135-3.631-19.135-9.916 0-2.933 0.978-9.079 2.095-13.687s2.514-15.643 2.933-24.442c1.955-32.822-7.821-59.079-30.168-81.007-8.38-8.24-21.649-15.643-32.822-18.157-10.614-2.514-31.565-2.095-36.872 0.559-7.123 3.772-14.945 18.017-19.135 34.498-1.118 4.888-2.514 10.056-2.933 11.592-0.839 3.213 2.095 1.676 3.492-1.815 3.073-7.123 18.157-30.169 22.347-33.799 4.608-4.051 5.447-4.331 14.804-3.772 26.816 1.257 54.191 25.838 62.991 56.286 2.095 6.704 2.375 11.732 1.675 27.236-0.418 10.335-1.675 22.067-2.793 25.838-4.888 17.458-15.923 31.705-29.61 37.849-14.246 6.565-39.246 9.637-60.057 7.542zM143.474 281.683c4.47-5.167 4.47-10.056 0-14.385-4.608-4.608-9.777-4.47-14.805 0.559-4.609 4.609-5.168 9.079-1.816 13.827 4.609 6.704 11.033 6.565 16.621 0zM139.843 226.654c4.888-2.933 9.917-10.195 10.755-16.062 1.118-6.425-3.772-13.549-12.012-17.598-7.961-4.051-25.559-4.609-29.609-0.839-3.213 2.793-3.213 6.704 0 9.916 1.257 1.397 6.983 7.961 12.57 14.665s11.173 12.151 12.291 12.151c1.257 0 3.911-0.978 6.006-2.234z" horiz-adv-x="663" />
<glyph unicode="&#xe609;" d="M257.075 402.125c-10.725-5.4-17.925-13.725-19.35-22.275-0.225-1.575-0.675-2.85-0.975-2.85-1.575 0-3.9 7.050-4.275 12.75-0.375 5.325-0.6 6-1.875 6-2.25 0-11.175-9.45-13.875-14.7-2.775-5.175-4.725-12-4.725-16.2 0-2.4-0.3-2.925-1.875-3.3-1.725-0.45-2.775 0.45-9.075 7.050-8.625 9.15-14.475 13.725-22.425 17.4-19.65 9.225-42.75 5.925-56.4-7.95-2.625-2.625-4.725-5.1-4.725-5.4s2.775-1.125 6.15-1.8c7.875-1.65 15.825-5.55 20.025-9.9 3.075-3.15 3.375-3.825 3.675-7.95 0.15-2.475 0.075-6.3-0.15-8.475l-0.525-3.975-5.4-0.9c-11.85-2.025-19.125-9.525-19.275-19.725 0-5.025 2.4-12.15 6.375-18.675l3.375-5.625v-8.775c0-4.8-0.375-10.5-0.825-12.6-0.75-3.525-1.35-4.275-6-8.1-8.025-6.6-10.425-11.025-10.425-19.575 0-11.4 6.825-19.050 26.775-30 8.55-4.725 11.1-6.9 13.95-12.375 1.35-2.625 1.65-4.575 1.875-13.050 0.3-9.225-0.75-29.925-1.875-38.025l-0.45-3.45-2.175 2.1c-2.85 2.625-8.1 10.050-10.425 14.475-0.9 1.875-2.475 5.925-3.375 8.925l-1.575 5.625-2.775-3c-4.050-4.35-7.575-10.425-9.9-17.175-1.65-4.95-2.1-7.65-2.4-15.45-0.825-24.45 8.025-40.725 27.6-50.55 6.3-3.15 6.75-3.6 9-7.8 7.575-14.1 21.975-25.125 37.425-28.725 6.9-1.575 7.8-1.95 14.625-6.15 10.125-6.15 21.9-8.925 38.325-8.925s28.2 2.775 38.325 8.925c6.825 4.2 7.725 4.575 14.625 6.15 15.45 3.6 29.85 14.625 37.425 28.725 2.25 4.2 2.7 4.65 9 7.8 18.675 9.375 27.825 25.125 27.825 48.075 0 14.325-4.425 26.55-12.825 35.475l-2.475 2.625-1.575-5.625c-0.9-3-2.475-7.050-3.375-8.925-2.325-4.425-7.575-11.85-10.425-14.475l-2.175-2.1-0.45 3.45c-1.125 8.1-2.175 28.8-1.875 38.025 0.225 8.475 0.525 10.425 1.875 13.050 2.85 5.475 5.4 7.65 13.95 12.375 19.95 10.95 26.775 18.6 26.775 30 0 8.55-2.4 12.975-10.425 19.575-4.65 3.825-5.25 4.575-6 8.1-0.45 2.1-0.825 7.8-0.825 12.6v8.775l3.375 5.625c3.975 6.525 6.375 13.65 6.375 18.675-0.15 10.2-7.425 17.7-19.275 19.725l-5.4 0.9-0.525 3.975c-0.225 2.175-0.3 6-0.15 8.475 0.3 4.125 0.6 4.8 3.675 7.95 4.2 4.35 12.15 8.25 20.025 9.9 3.375 0.675 6.15 1.5 6.15 1.8s-2.1 2.775-4.65 5.4c-13.725 13.875-36.825 17.175-56.475 7.95-7.95-3.675-13.8-8.25-22.35-17.325-3.9-4.050-7.35-7.425-7.725-7.425s-1.95 0.375-3.45 0.825l-2.85 0.75v4.275c0 5.325 1.65 11.775 4.5 18.075l2.25 4.725-4.050-0.3c-4.575-0.375-10.35-3-15.975-7.275l-3.825-2.925-0.825 1.95c-2.4 6.3-3.075 15.075-1.5 20.625 0.45 1.65 0.675 3.075 0.45 3.225-0.15 0.225-3.375-1.2-7.2-3.075zM164.075 379.7c9.225-1.95 17.1-7.125 25.5-16.65 5.85-6.75 5.85-6.675 1.275-9-3.675-1.875-3.975-1.875-4.725-0.675-2.025 3.525-7.35 9.375-11.025 12.15-8.1 6.15-15.375 8.625-24.75 8.4-4.8-0.15-6.15 0.15-8.475 1.575-3.3 2.025-2.925 2.4 4.5 3.975 6.75 1.5 11.475 1.5 17.7 0.225zM351.35 379.55c7.95-1.65 8.4-1.95 5.025-4.050-2.325-1.425-3.675-1.725-8.475-1.575-9.375 0.225-16.65-2.25-24.75-8.4-3.675-2.775-9-8.625-11.025-12.15-0.75-1.2-1.050-1.2-4.725 0.675-4.575 2.325-4.575 2.25 1.275 9 8.25 9.375 16.275 14.7 25.125 16.575 6.225 1.35 10.725 1.35 17.55-0.075zM162.65 363.35c4.125-1.8 8.775-6.45 11.325-11.625 2.925-5.7 2.85-6.45-1.2-10.575l-3.6-3.675-3.9 0.9c-4.95 1.050-5.625 2.325-6.9 13.125-0.675 5.1-1.65 9.3-2.625 11.25l-1.575 3.15 2.475-0.525c1.35-0.3 4.050-1.2 6-2.025zM342.5 362.675c-0.975-1.875-1.95-6.15-2.625-11.175-1.275-10.8-1.95-12.075-6.9-13.125l-3.9-0.9-3.6 3.675c-4.050 4.125-4.125 4.875-1.275 10.575 3.525 6.825 8.1 10.8 14.925 12.975 4.8 1.5 5.1 1.35 3.375-2.025zM275.3 352.325c4.125-0.825 10.2-2.475 13.5-3.525 7.875-2.55 21-9.3 25.125-12.75l3.15-2.775-5.475-2.925c-11.4-6.15-22.65-16.425-30.525-27.825-2.175-3.225-3.825-6-3.75-6.15 0.15-0.15 4.2 2.625 8.925 6.15 23.925 17.625 41.925 25.65 60.375 26.925 7.95 0.6 14.025-0.75 16.8-3.75 3.525-3.75 2.625-11.175-2.325-18.9l-2.4-3.675-0.6 3c-0.375 1.65-0.525 3.675-0.3 4.425 0.225 0.825 0.075 1.125-0.3 0.75-1.125-1.2-3.075-12.525-3.525-20.55-0.45-8.925 0.825-17.55 3.975-26.475 2.025-5.7 5.85-12.9 7.2-13.725 0.45-0.3 0.6-0.225 0.375 0.225-0.225 0.375-0.75 2.625-1.125 5.025l-0.675 4.2 2.325-1.725c6.825-5.175 6.825-16.8-0.075-23.1-3.075-2.85-7.8-5.925-16.275-10.5-11.25-6.15-15.6-11.175-18.15-20.925-1.050-4.2-1.2-7.5-0.825-24 0.3-10.5 0.825-22.8 1.275-27.3 0.45-4.875 0.525-8.475 0.075-8.925-1.35-1.35-11.925-3.6-19.35-4.125l-7.65-0.525-1.5 3.375c-0.825 1.875-4.125 9.975-7.275 18-6.375 16.35-13.2 31.35-13.65 30.075-0.9-2.7 6.6-33.825 12.15-50.325 1.875-5.55 3.45-10.275 3.45-10.5s-22.125-0.375-49.125-0.375c-27 0-49.125 0.15-49.125 0.375s1.575 4.95 3.45 10.5c5.55 16.5 13.050 47.625 12.15 50.325-0.45 1.275-7.275-13.725-13.65-30.075-3.15-8.025-6.45-16.125-7.275-18l-1.5-3.375-7.65 0.525c-7.425 0.525-18 2.775-19.35 4.125-0.45 0.45-0.375 4.050 0.075 8.925 0.45 4.5 0.975 16.875 1.275 27.45 0.525 22.2 0 25.95-5.1 33.525-3.15 4.725-6.3 7.2-15.3 12.075-7.050 3.75-11.925 6.975-14.85 9.675-6.9 6.3-6.9 17.925-0.075 23.1l2.325 1.725-0.675-4.2c-0.375-2.4-0.9-4.65-1.125-5.025-0.225-0.45-0.075-0.525 0.375-0.225 1.35 0.825 5.175 8.025 7.125 13.725 4.875 13.575 5.475 26.7 1.875 42.975l-0.9 4.125-1.65-8.25-2.4 3.675c-4.95 7.725-5.85 15.15-2.325 18.9 2.775 3 8.85 4.35 16.8 3.75 18.45-1.275 36.45-9.3 60.375-26.925 4.725-3.525 8.775-6.3 8.925-6.15 0.075 0.15-1.575 2.925-3.75 6.15-7.875 11.4-19.125 21.675-30.525 27.825l-5.475 2.925 3.15 2.775c7.65 6.525 26.175 14.1 40.425 16.5 3.9 0.675 7.95 1.35 9 1.5s9.15 0.225 18 0.075c12.6-0.225 17.775-0.6 23.55-1.8zM137.075 155.225c2.85-6.075 10.95-14.475 17.175-18 7.8-4.35 22.875-8.475 30.9-8.475 1.125 0 2.1-0.225 2.1-0.45 0-0.6-2.85-4.65-5.775-8.175-4.35-5.1-5.625-12.675-3.45-20.55 0.45-1.8 0.45-1.8-4.2-1.35-12.3 1.275-22.65 5.85-30.15 13.275-8.925 8.85-12.375 18.975-11.7 34.875 0.3 7.575 1.425 13.875 2.4 13.875 0.15 0 1.35-2.25 2.7-5.025zM366.275 146.375c0.6-15.9-2.775-26.025-11.7-34.875-7.5-7.425-17.85-12-30.15-13.275-4.65-0.45-4.65-0.45-4.2 1.35 2.175 7.875 0.9 15.45-3.45 20.55-2.925 3.525-5.775 7.575-5.775 8.175 0 0.225 0.975 0.45 2.1 0.45 4.65 0 16.65 2.55 22.65 4.8 11.775 4.35 20.925 12.3 25.575 22.050l2.4 5.025 1.125-2.625c0.675-1.575 1.275-6.15 1.425-11.625zM304.475 117.575c6.75-3.3 8.1-8.925 4.65-19.275-6.525-19.5-18.975-34.35-33.975-40.425-9.225-3.75-13.35-4.425-26.025-4.425s-16.8 0.675-26.025 4.425c-15 6.075-27.45 20.925-33.975 40.425-3.975 11.85-1.425 18.3 8.325 20.625 1.65 0.375 24.15 0.675 53.175 0.6l50.25-0.15 3.6-1.8zM182.825 86.075c1.125-1.125 8.025-15.075 7.5-15.075-2.775 0-14.625 9.375-18.15 14.4l-1.575 2.175 5.85-0.525c3.3-0.225 6.15-0.675 6.375-0.975zM326.075 85.325c-3.525-4.95-15.375-14.325-18.075-14.325-0.375 0 1.2 3.45 3.375 7.725l4.050 7.65 3.975 0.45c2.175 0.225 4.95 0.45 6.075 0.525l2.1 0.15-1.5-2.175zM157.325 283.925c-2.625-0.3-4.875-0.75-5.1-0.975-0.225-0.15 1.725-0.9 4.2-1.65l4.575-1.275-1.8-1.8c-3.675-3.675-3.975-11.475-0.675-17.775l1.275-2.325 1.050 4.725c0.6 2.55 1.275 4.5 1.575 4.275 0.375-0.15 0.825-1.95 1.050-3.9 1.050-8.85 6.45-17.7 13.275-21.825 11.55-6.9 23.475-7.95 31.2-2.7 1.425 0.975 2.7 1.8 2.85 1.8s0.9-2.175 1.575-4.875c1.125-4.2 1.2-5.625 0.525-10.050-0.525-2.85-1.125-5.775-1.425-6.525-0.45-1.35-0.375-1.35 1.2 0.075 2.4 2.1 7.575 12.975 8.175 17.25 0.525 3.525 0.675 3.675 3.375 4.275 3.975 0.825 8.25 3.9 10.125 7.275 2.1 3.675 2.25 6.45 0.375 5.7-0.75-0.375-3.6-0.75-6.375-0.975-7.050-0.45-11.625 1.725-18.375 8.85-15.825 16.725-34.725 24.75-52.65 22.425zM191.3 262.85c4.275-3.225 9.825-8.1 12.375-10.875 5.325-5.775 5.25-6.075-2.1-8.25-7.5-2.175-17.7 0.525-22.125 5.85-3.45 4.050-5.175 13.65-3.75 20.85l0.45 2.325 3.75-2.1c2.025-1.125 7.2-4.65 11.4-7.8zM233.675 280.925c9-8.4 15.675-10.2 22.95-6 3.75 2.175 11.925 9 11.4 9.525-0.15 0.225-2.25-0.525-4.575-1.575-9.525-4.2-19.2-4.2-28.725 0-2.25 1.050-4.35 1.875-4.65 1.875-0.225-0.075 1.35-1.725 3.6-3.825zM328.25 284c-13.425-1.575-27.9-9.75-39.975-22.5-6.75-7.125-11.325-9.3-18.375-8.85-2.775 0.225-5.625 0.6-6.3 0.975-1.95 0.75-1.8-2.025 0.3-5.7 1.875-3.375 6.15-6.45 10.125-7.275 2.7-0.6 2.85-0.75 3.375-4.275 0.6-4.275 5.775-15.15 8.175-17.25 1.575-1.425 1.65-1.425 1.2-0.075-0.3 0.75-0.9 3.675-1.425 6.525-0.675 4.425-0.6 5.85 0.525 10.050 0.675 2.7 1.425 4.875 1.575 4.875s1.425-0.825 2.85-1.8c7.725-5.25 19.65-4.2 31.2 2.7 6.825 4.125 12.225 12.975 13.275 21.825 0.225 1.95 0.675 3.75 1.050 3.9 0.3 0.225 0.975-1.725 1.575-4.275l1.050-4.725 1.275 2.325c3.3 6.3 3 14.1-0.675 17.775l-1.8 1.8 4.65 1.35c4.050 1.2 4.5 1.425 2.85 1.875-3.45 0.975-11.55 1.275-16.5 0.75zM322.925 264.425c0.075-5.925-1.5-11.775-4.125-14.85-4.425-5.325-14.625-8.025-22.125-5.85-7.275 2.175-7.425 2.475-2.475 7.875 4.875 5.4 14.1 12.825 22.125 17.775 5.475 3.375 5.55 3.375 6.075 1.725 0.225-0.975 0.45-3.975 0.525-6.675zM201.5 108.725c-6.075-2.325-4.8-8.925 3.375-17.25 9.3-9.525 16.425-8.25 24.75 4.35 4.275 6.3 4.95 9.45 2.625 11.55-1.5 1.35-2.85 1.5-15.675 1.65-7.65 0.075-14.475-0.075-15.075-0.3zM267.875 108.575c-4.5-1.875-4.275-5.325 0.75-12.825 8.325-12.525 15.45-13.725 24.75-4.275 6.975 7.125 8.925 12.9 5.55 15.975-1.425 1.275-3 1.425-15.6 1.575-7.65 0.075-14.625-0.15-15.45-0.45z" />
<glyph unicode="&#xe60a;" d="M206.826 64.701c0 0 48.064-33.276 96.697 0l3.697 61.433c0 0 14.789 21.334 15.073 25.317l21.473 190.548c0 0 2.772 7.252-60.151 8.533l10.238 36.048 42.021 45.434-11.305 8.959-47.353-49.060-10.452-40.101c0 0-94.707 0-98.546-9.812l18.558-191.333c0 0 6.613-12.585 14.931-24.957l5.12-61.005z" />
<glyph unicode="&#xe60b;" d="M175.988 336.88c-3.215-16.769-6.428-33.399-7.267-37.031l-1.398-6.707h-58.412v-39.127h25.154c13.834 0 25.154-0.279 25.154-0.419 0-0.699-8.244-41.504-9.084-45.277-0.699-3.215-0.839-3.215-29.346-3.215h-28.647v-37.731h23.756c13.135 0 23.756-0.56 23.756-1.118s-3.355-17.887-7.547-38.43l-7.406-37.311 26.691 0.279 26.551 0.419 7.127 37.731 6.988 37.731 26.411 0.419c14.533 0.139 26.971-0.139 27.389-0.699 0.56-0.699-2.096-16.769-5.73-36.054-3.633-19.145-6.707-36.054-6.707-37.311-0.139-2.375 1.956-2.515 26.132-2.515h26.272l6.707 35.915c3.633 19.844 6.988 37.171 7.267 38.569 0.699 2.096 3.354 2.375 30.044 2.375h29.206v37.731h-24.455c-18.026 0-24.455 0.419-24.455 1.677 0 0.978 1.956 11.878 4.471 24.455l4.471 22.778h55.339v39.127h-23.756c-13.834 0-23.756 0.56-23.756 1.258 0 1.118 12.717 62.605 14.533 70.43 0.56 2.236-1.397 2.376-25.433 2.376h-26.132l-7.685-36.612-7.685-36.752-27.668-0.419c-25.993-0.279-27.668-0.139-26.971 2.096 0.839 2.935 14.813 69.452 14.813 70.85 0 0.419-11.878 0.839-26.411 0.839h-26.411l-5.869-30.324zM265.423 251.637c-0.139-1.398-2.096-12.298-4.611-24.176l-4.471-21.66-26.832-0.419c-25.014-0.279-26.971-0.139-26.971 2.096 0 1.397 1.956 12.438 4.332 24.595l4.471 21.94h26.971c24.874 0 27.11-0.139 27.11-2.375z" horiz-adv-x="493" />
<glyph unicode="&#xe60c;" d="M227.042 270.081c-16.55-2.803-30.298-9.743-46.715-23.892-42.444-36.571-47.115-39.775-56.059-38.040-11.612 2.135-17.485 7.741-17.618 16.284 0 7.34 0.934 9.477 5.472 11.745 6.808 3.603 9.877 2.269 12.546-5.472l1.735-5.072 2.802 4.538c5.739 9.343 2.136 19.353-8.409 23.357-15.35 5.873-35.37-4.004-39.508-19.487-2.403-8.809-2.002-27.895 0.668-36.037 3.337-10.010 14.682-21.223 25.359-25.226 18.152-6.673 35.103-8.276 52.988-4.805 13.881 2.67 24.158 6.406 49.118 17.752 23.358 10.544 50.053 21.223 63.399 25.226 11.745 3.471 33.902 3.204 48.718-0.668 6.273-1.601 26.161-9.743 44.846-18.152 47.382-21.49 59.395-25.226 83.286-25.226 31.365-0.133 54.19 11.745 60.863 31.632 2.669 8.009 3.070 25.226 0.668 33.902-3.337 12.28-14.282 21.623-26.827 22.823-8.409 0.801-14.949-1.601-20.021-7.208-4.805-5.606-5.205-11.212-1.068-17.886l2.937-4.672 0.935 4.672c1.868 8.675 9.477 10.678 15.082 3.87 6.673-7.875 3.337-18.552-7.207-23.892-11.745-6.006-20.421-1.868-49.252 23.491-22.022 19.353-27.628 23.625-38.307 28.963-11.88 6.006-22.156 8.008-38.84 7.34-13.881-0.534-15.483-0.935-24.826-5.473-9.61-4.672-20.955-14.148-25.093-20.688l-1.868-3.203-10.144 10.010c-17.752 17.351-36.037 23.358-59.662 19.487z" horiz-adv-x="603" />
<glyph unicode="&#xe60d;" d="M67.993 424.519l33.785-371.011 148.963-41.604 148.846 41.605 31.908 371.011h-363.503zM360.171 303.144l-173.933-0.313 4.066-46.298 165.485-0.313-12.513-139.209-92.751-26.902-93.379 26.591-6.57 71.949 45.986-0.313 3.441-36.288 50.736-14.077 50.307 14.391 5.005 58.498h-157.664l-11.887 137.644h228.050l-4.38-45.36z" />
<glyph unicode="&#xe60e;" d="M111.093 76.304c-12.613 0-23.952 1.505-34.010 4.505-10.066 2.998-18.919 7.13-26.578 12.388-7.658 5.25-14.345 11.409-20.046 18.469-5.709 7.053-10.361 14.485-13.965 22.299l51.354 31.082c4.8-8.714 10.058-16.294 15.767-22.748 5.701-6.462 13.965-9.684 24.776-9.684 5.103 0 9.755 0.599 13.965 1.802 4.203 1.195 7.728 3.301 10.586 6.307 2.851 2.998 5.103 7.053 6.757 12.163 1.647 5.103 2.477 11.557 2.477 19.37v214.421h63.066v-215.323c0-16.217-2.252-30.337-6.757-42.345-4.505-12.014-10.967-21.924-19.371-29.731-8.411-7.812-18.398-13.591-29.955-17.342-11.565-3.751-24.256-5.631-38.065-5.631zM354.34 76.304c-14.718 0-28.084 1.639-40.091 4.913-12.015 3.279-22.827 7.749-32.435 13.408-9.615 5.658-17.949 12.429-25.001 20.327-7.060 7.897-12.839 16.336-17.343 25.317l51.355 29.732c6.904-11.115 15.089-20.272 24.55-27.478s21.996-10.812 37.614-10.812c13.212 0 23.649 2.927 31.308 8.798 7.658 5.863 11.487 13.31 11.487 22.341 0 10.825-4.054 18.947-12.163 24.368-8.11 5.413-19.371 11.276-33.785 17.596l-15.767 6.771c-11.416 4.815-21.776 10.079-31.082 15.794-9.313 5.715-17.273 12.332-23.875 19.849-6.61 7.517-11.712 16.097-15.316 25.727s-5.406 20.904-5.406 33.841c0 11.733 2.175 22.713 6.532 32.94 4.349 10.226 10.508 19.103 18.469 26.627 7.954 7.517 17.639 13.387 29.055 17.596 11.41 4.209 24.171 6.32 38.291 6.32 20.116 0 37.459-3.865 52.028-11.585 14.563-7.722 27.099-20.814 37.614-39.282l-49.101-31.569c-5.406 9.608-11.262 16.512-17.568 20.721-6.307 4.202-13.964 6.306-22.973 6.306-9.313 0-16.668-2.548-22.074-7.644s-8.108-11.543-8.108-19.335c0-9.601 3.075-16.872 9.235-21.813 6.151-4.947 15.991-10.417 29.505-16.414l15.767-6.743c13.513-5.701 25.452-11.621 35.813-17.766 10.361-6.151 19.067-13.042 26.127-20.686 7.053-7.644 12.457-16.343 16.216-26.085 3.752-9.74 5.631-21.208 5.631-34.397 0-14.091-2.632-26.606-7.882-37.544-5.259-10.945-12.543-20.165-21.848-27.663-9.312-7.495-20.349-13.119-33.11-16.863-12.767-3.737-26.654-5.617-41.668-5.617z" />
<glyph unicode="&#xe60f;" d="M254.176 418.579c-19.243-6.988-71.596-42.786-144.698-98.901l-24.296-18.597 0.108-128.25c0.108-70.629 0.323-128.358 0.43-128.572 0.108-0.108 26.338 10.642 58.266 23.865l58.051 23.973 0.322 65.362 0.215 65.361 17.523 17.308c23.435 23.327 32.142 28.81 42.033 26.983 6.665-1.29 16.985-9.245 34.724-26.983l17.523-17.415 0.215-65.253 0.322-65.361 58.051-23.973c31.928-13.223 58.159-23.973 58.266-23.758 0.215 0.108 0.322 57.944 0.322 128.466l0.108 128.25-17.522 13.546c-65.039 50.204-119.757 88.474-142.226 99.654-11.825 5.805-13.008 6.128-17.738 4.3z" horiz-adv-x="531" />
<glyph unicode="&#xe610;" d="M108.975 243.8v-71.537h117.525v-22.994h95.808v22.994h213.333v143.073h-426.666v-71.537zM226.5 243.8v-48.543h-24.272v71.537h-21.716v-71.537h-48.542v97.085h94.53v-48.542zM346.579 243.8v-48.543h-45.988v-22.994h-49.821v120.080h95.809v-48.542zM513.924 243.8v-48.543h-24.272v71.537h-22.994l-0.255-35.385-0.383-35.513h-24.272l-0.383 35.513-0.255 35.385h-22.994v-71.537l-23.889 0.255-24.017 0.383-0.383 48.287-0.255 48.16h144.351v-48.542zM300.591 244.44v-22.356h21.716v44.71h-21.716v-22.355z" horiz-adv-x="638" />
<glyph unicode="&#xe611;" d="M363.945 247.611c-2.602 0.799-5.576 1.373-8.926 1.725-3.352 0.35-7.025 0.525-11.023 0.525-0.602-0.101-1.178-0.15-1.727-0.15-0.551 0-1.074 0-1.574 0-0.502 0-1.027 0-1.574 0-0.551 0-1.076 0-1.576 0v0.15l-12-45c0.199 0 0.375-0.025 0.525-0.075 0.15-0.052 0.324-0.075 0.525-0.075 0.098 0 0.248 0 0.449 0 0.199 0 0.35 0 0.451 0 0.299 0 0.623 0 0.975 0 0.35 0 0.725 0 1.125 0 4.699-0.101 9.074 0.099 13.125 0.6 4.049 0.5 7.725 1.25 11.025 2.25 3.199 1.1 6 3.451 8.398 7.051 2.4 3.6 4.4 8.55 6 14.85 1.201 5.299 1.449 9.45 0.75 12.45s-2.348 4.898-4.948 5.699zM181.998 247.611c-2.602 0.799-5.576 1.373-8.925 1.725-3.352 0.35-7.027 0.525-11.025 0.525-0.6-0.101-1.177-0.15-1.725-0.15-0.551 0-1.076 0-1.575 0-0.501 0-1.026 0-1.575 0-0.551 0-1.076 0-1.575 0v0.15l-12-45c0.199 0 0.375-0.025 0.525-0.075 0.15-0.052 0.324-0.075 0.525-0.075 0.099 0 0.249 0 0.45 0 0.199 0 0.349 0 0.45 0 0.3 0 0.623 0 0.975 0 0.35 0 0.725 0 1.125 0 4.699-0.101 9.075 0.099 13.125 0.6 4.050 0.5 7.725 1.25 11.025 2.25 3.199 1.1 6 3.451 8.4 7.051s4.399 8.55 6 14.85c1.2 5.299 1.448 9.45 0.75 12.45-0.701 2.999-2.351 4.898-4.95 5.699zM257.359 328.919c-109.33 0-197.96-46.974-197.96-104.919s88.63-104.919 197.96-104.919c109.331 0 197.961 46.974 197.961 104.919s-88.63 104.919-197.961 104.919zM207.798 229.311c-0.502-2.7-1.226-5.325-2.175-7.875-0.952-2.549-2.077-5.125-3.375-7.725-1.401-2.5-2.977-4.926-4.725-7.275-1.75-2.35-3.727-4.525-5.925-6.524-2.7-2.602-5.452-4.726-8.25-6.375-2.801-1.649-5.651-2.827-8.55-3.524-2.801-0.701-5.7-1.227-8.7-1.576-3-0.352-6-0.524-9-0.524h-18l-7.65-28.5h-20.85l28.8 107.55h40.2c5.798-0.101 10.774-1 14.925-2.7 4.148-1.702 7.425-4.2 9.825-7.5 2.4-3.401 3.9-7.376 4.5-11.925 0.6-4.553 0.248-9.729-1.050-15.527zM261.047 187.911l12.75 47.7c0.697 2.498 1.023 4.65 0.975 6.45-0.051 1.8-0.426 3.199-1.125 4.2-0.801 1.099-2.051 1.898-3.75 2.4-1.701 0.499-3.852 0.75-6.449 0.75l-16.5 0.15-16.5-61.65h-20.7l28.8 107.7h20.7l-7.65-28.65h18.602c4.998-0.101 9.348-0.675 13.049-1.725 3.699-1.050 6.75-2.576 9.15-4.575 2.4-2.001 3.848-4.901 4.35-8.7 0.5-3.801 0.049-8.5-1.35-14.1l-13.35-49.95h-21.002zM389.746 229.311c-0.502-2.7-1.227-5.325-2.176-7.875-0.951-2.549-2.076-5.125-3.375-7.725-1.402-2.5-2.977-4.926-4.725-7.275-1.752-2.35-3.727-4.525-5.926-6.524-2.699-2.602-5.451-4.726-8.25-6.375-2.801-1.649-5.65-2.827-8.549-3.524-2.801-0.701-5.701-1.227-8.701-1.576-3-0.352-6-0.524-9-0.524h-18l-7.65-28.5h-20.85l28.801 107.55h40.199c5.799-0.101 10.775-1 14.926-2.7 4.148-1.702 7.424-4.2 9.824-7.5 2.4-3.401 3.9-7.376 4.5-11.925 0.601-4.553 0.249-9.729-1.048-15.527z" />
<glyph unicode="&#xe612;" d="M211.887 410.894c-16.707-2.809-21.142-4.139-35.335-11.385-18.037-9.463-19.811-13.454-19.072-45.832l0.443-20.403h41.397c25.725 0 42.579-0.591 44.353-1.479 2.070-1.183 2.809-3.105 2.809-7.392 0-5.323-0.296-5.766-4.731-6.505-2.661-0.443-34.448-1.035-70.671-1.479l-65.791-0.887-9.167-4.435c-20.699-10.202-30.9-30.457-34.596-68.897-4.435-47.015 9.462-86.638 34.892-99.057 7.097-3.401 9.757-3.844 26.169-3.991l18.185-0.296 0.887 28.091c0.591 15.524 1.626 30.161 2.513 32.526 4.583 14.489 13.75 24.839 27.647 31.344l8.871 4.139 59.877 0.739c59.139 0.739 60.025 0.739 67.713 4.287 9.906 4.435 19.959 15.524 23.507 25.725 2.365 6.949 2.661 13.011 2.514 58.99l-0.147 51.155-3.844 6.505c-4.139 7.245-16.411 17.445-25.134 21.142-19.22 7.983-66.531 11.68-93.291 7.392zM202.868 384.134c13.159-6.209 12.124-22.769-1.774-30.013-7.393-3.844-18.037-0.296-21.881 7.245-7.983 15.376 7.541 30.457 23.655 22.769zM357.959 310.359c-0.147-0.739-0.739-13.454-1.035-28.091-0.591-23.064-1.035-27.795-3.991-35.335-4.435-11.679-13.75-21.585-25.577-26.908l-9.167-4.287-119.755-1.479-8.427-4.139c-10.202-5.027-17.741-13.307-22.177-24.543-3.252-7.983-3.252-10.053-3.252-59.435v-51.007l3.844-6.653c4.287-7.245 13.75-15.671 22.621-20.255 3.252-1.627 13.306-4.435 22.177-6.358 20.994-4.583 62.391-5.027 81.315-0.887 15.376 3.252 37.257 13.897 42.137 20.55 3.548 4.731 3.697 5.913 4.139 30.309l0.443 25.577h-40.658c-22.325 0-42.284 0.591-44.206 1.33-2.809 1.035-3.844 2.809-4.287 6.801-0.591 4.731-0.148 5.618 2.957 6.801 1.922 0.739 32.231 1.33 67.417 1.33 70.522 0 72.593 0.296 86.047 9.315 19.959 13.306 29.125 39.919 28.978 83.089-0.147 17.446-0.739 24.69-3.105 34.005-6.209 23.507-17.298 40.214-31.787 47.311-7.096 3.548-9.906 3.991-26.021 4.139-11.089 0.147-18.333-0.296-18.628-1.183zM313.013 95.981c11.532-5.913 11.532-23.656 0-29.569-12.715-6.505-28.238 3.401-26.169 16.559 2.070 11.975 15.376 18.628 26.169 13.011z" horiz-adv-x="515" />
<glyph unicode="&#xe613;" d="M290.469 385.188c0.932-3.842 1.631-7.219 1.746-7.685 0-0.582 5.239-0.931 11.76-0.931h11.76l-0.815 6.172c-0.466 3.26-1.281 6.521-1.863 7.103-0.466 0.582-6.172 1.28-12.575 1.631l-11.644 0.582 1.631-6.869zM230.622 378.317c-4.076-2.212-7.685-4.192-7.917-4.541-1.164-1.048 12.691-17 14.089-16.185 6.404 3.726 15.835 10.013 15.835 10.479 0 1.281-12.109 14.322-13.274 14.322-0.698 0-4.657-1.863-8.733-4.075zM292.8 371.798c-35.28-5.356-67.999-26.082-93.849-59.266-16.651-21.424-39.356-66.135-53.094-104.793-13.506-37.726-23.986-98.854-20.841-120.278l0.814-5.473h153.231l-4.541 12.226c-22.356 60.78-28.061 123.19-14.671 163.011 8.5 25.5 27.014 50.067 47.972 63.691 11.062 7.103 28.294 14.904 37.26 16.882 17.815 3.726 39.472-1.048 51.349-11.41 2.329-2.096 4.308-3.492 4.425-3.26 0.233 0.233 1.746 2.445 3.492 4.774l3.144 4.309-6.172 5.356c-14.671 13.041-40.986 27.479-58.451 32.137-10.596 2.911-37.841 3.959-50.067 2.096zM167.048 324.059c-3.843-4.425-7.103-8.5-7.219-8.965-0.349-0.931 17.583-13.041 19.328-13.041s15.602 17.582 14.554 18.514c-2.096 1.863-18.048 11.76-18.863 11.644-0.465 0-3.958-3.726-7.801-8.151zM286.394 297.977l-5.007-5.122 4.541-5.008c2.562-2.795 5.938-6.753 7.568-8.965l3.144-3.959 3.027 5.239c1.631 2.911 3.027 5.938 3.027 6.869 0 1.746-9.431 16.185-10.479 16.185-0.349 0-3.027-2.329-5.821-5.239zM120.123 245.93c-1.98-5.356-3.843-10.479-4.308-11.644-0.582-1.514 1.514-2.562 12.226-6.172 7.219-2.329 13.39-3.843 13.74-3.492 0.465 0.349 2.445 5.356 4.425 11.062l3.726 10.363-12.226 4.657c-6.754 2.678-12.576 4.774-13.157 4.774-0.466 0-2.562-4.309-4.425-9.548zM265.32 247.443l-3.027-6.869 9.431-7.685 9.431-7.569 2.212 8.85c1.979 8.5 1.979 9.083 0.116 10.245-1.048 0.582-4.657 3.143-7.918 5.589-3.26 2.329-6.172 4.309-6.521 4.309-0.466 0-2.096-3.143-3.726-6.869zM260.663 194.231c-0.116-4.657-0.233-9.199-0.349-10.013-0.116-1.164 18.978-10.13 21.774-10.245 0.466 0 0.815 3.842 0.582 8.384l-0.349 8.5-10.712 6.055-10.829 6.055-0.116-8.733zM93.808 155.11c-1.746-10.479-3.144-23.404-2.562-23.986 0.931-0.932 26.547-3.959 27.246-3.144 0.698 0.699 5.939 27.828 5.472 28.294s-20.377 2.562-25.267 2.562c-3.959 0-4.425-0.349-4.891-3.726zM269.743 127.165c0.349-2.096 1.514-6.753 2.562-10.245l1.979-6.404 14.438-0.815c8.033-0.466 14.671-0.699 14.787-0.582 0.116 0.233-2.096 5.123-4.89 11.062l-5.123 10.712h-24.451l0.699-3.726z" horiz-adv-x="497" />
<glyph unicode="&#xe614;" d="M117.724 363.591v-32.891l11.562-0.786c64.659-4.377 116.968-27.39 163.44-71.954 35.248-33.9 59.382-74.985 70.832-120.56 3.817-15.267 6.398-30.87 7.296-43.33 0.337-4.938 0.897-11.113 1.235-13.807l0.562-4.715h65.332l-0.674 19.42c-1.235 37.604-9.205 72.067-24.921 108.1-39.176 89.802-121.121 160.523-213.281 183.983-24.809 6.286-47.933 9.541-69.26 9.541h-12.124v-33.002zM116.602 258.746c0-23.685 0.337-32.666 1.346-33.675 0.785-0.786 4.266-1.346 7.969-1.346 3.592 0 11.562-1.011 17.511-2.245 53.882-11 91.037-41.871 111.13-92.496 4.602-11.562 8.868-26.38 10.776-38.279 1.011-5.5 2.021-11.225 2.245-12.685l0.562-2.47h65.444l-0.786 12.348c-3.255 53.993-23.461 99.681-61.178 138.52-28.512 29.186-60.728 48.269-98.222 57.922-15.603 4.041-34.799 6.735-47.258 6.735h-9.542v-32.329zM153.308 164.118c-26.603-3.704-43.666-30.421-35.697-55.902 10.552-33.901 52.086-43.666 75.882-17.848 8.532 9.205 11.113 16.389 11.225 30.645 0 9.878-0.337 12.011-3.031 17.623-8.643 18.522-27.39 28.401-48.381 25.481z" horiz-adv-x="542" />
<glyph unicode="&#xe615;" d="M315.031 393.219c-24.769-1.414-42.26-5.405-67.525-15.442-33.922-13.496-62.683-29.964-85.829-49.221-6.183-5.124-19.328-18.375-23.709-23.816-13.356-16.749-20.565-31.906-22.049-46.36-0.531-5.053 0.070-9.469 2.085-15.476 6.007-17.951 21.413-35.122 49.504-55.157 2.614-1.872 9.293-6.538 14.842-10.389 11.060-7.668 15.441-10.849 19.399-14.063 3.075-2.509 3.322-2.050-2.968-5.264-16.855-8.587-32.968-18.904-44.345-28.481-4.911-4.099-12.578-12.155-15.053-15.794-8.268-12.12-11.095-27.209-7.315-39.223 2.721-8.622 8.516-15.654 14.523-17.491 7.031-2.19 18.869-2.933 26.395-1.625 15.229 2.579 28.020 9.152 39.363 20.175 10.141 9.894 16.537 20.812 20 34.274 4.099 15.972 3.357 33.109-1.979 45.935-0.601 1.484-1.060 2.721-0.989 2.791 0.424 0.283 11.873 6.925 16.042 9.293 8.021 4.524 9.010 5.088 9.010 4.805 0-0.176-0.319-1.308-0.706-2.579-3.71-11.837-5.759-28.903-4.63-38.162 1.979-16.042 9.045-31.060 16.289-34.558 4.452-2.121 11.024-1.908 15.194 0.531 2.227 1.308 4.841 4.063 7.031 7.35 2.366 3.639 8.692 16.466 12.402 25.264 1.626 3.781 3.003 6.961 3.108 7.067s0.070-0.706-0.070-1.767c-0.99-7.668-0.777-17.773 0.459-22.685 1.837-7.137 5.653-10.884 11.201-10.954 4.452-0.070 9.575 3.533 14.77 10.423 4.841 6.466 21.377 37.844 29.824 56.606 3.64 8.091 8.517 19.54 11.094 25.971 0.954 2.439 1.872 4.558 2.014 4.7 0.176 0.176 0.389-0.389 0.531-1.236 0.425-2.65 3.356-14.31 4.488-17.666 0.601-1.802 2.861-6.997 5.017-11.519l3.887-8.233-0.706-0.954c-0.389-0.531-1.555-2.155-2.614-3.604-2.439-3.392-8.269-10.601-17.456-21.519-10.743-12.861-12.509-15.547-12.543-19.257 0-3.286 2.685-6.113 6.642-6.961 2.791-0.565 10.707-0.212 14.911 0.706 10.531 2.261 21.307 7.668 27.49 13.817 10.706 10.565 12.402 25.442 4.911 43.109l-0.531 1.236 4.17 6.219c6.75 10.14 12.438 19.893 20.954 36.007 1.096 2.050 2.050 3.462 2.121 3.18 0.106-0.283 0.601-2.509 1.131-4.947 2.439-11.236 4.382-16.925 8.834-25.795l2.366-4.7-1.731-1.449c-5.759-4.841-12.12-11.944-16.183-18.056-4.7-7.067-7.42-13.746-8.339-20.493-1.166-8.762 3.216-14.663 10.849-14.663 3.075 0 11.094 2.651 17.172 5.654 9.858 4.911 18.304 12.685 22.014 20.317 2.014 4.099 2.651 6.856 2.651 11.519 0 4.452-0.671 8.269-2.366 13.497-0.671 2.121-1.166 3.887-1.096 3.957 0.389 0.389 7.137 2.509 10.601 3.356 11.094 2.721 25.3 3.038 38.091 0.848 20.777-3.534 35.369-14.346 39.61-29.293 1.131-3.957 1.167-9.258 0.071-12.721-1.696-5.336-5.689-10.176-11.66-14.276-2.861-1.908-3.287-2.332-3.287-3.18 0-1.484 0.741-1.908 2.933-1.731 3.674 0.317 9.258 3.569 13.675 8.021 5.937 5.937 8.515 12.19 8.587 20.53 0.036 11.307-4.593 21.801-13.71 30.918-14.169 14.169-36.535 20.495-61.307 17.278-8.269-1.060-18.727-3.993-25.618-7.209-2.402-1.096-3.216-1.308-3.462-0.99-0.99 1.414-7.103 14.31-7.88 16.608-0.99 3.038-2.261 11.731-2.261 15.901 0 5.405 1.166 11.131 4.063 19.718 0.883 2.614 1.59 5.088 1.59 5.548 0 1.273-1.943 3.18-3.993 3.887-2.545 0.883-11.767 0.883-16.325-0.036-3.462-0.672-6.183-1.696-6.997-2.614-0.671-0.742-2.826-7.526-3.745-11.803-1.236-5.69-2.862-9.681-8.303-20.248-4.805-9.399-18.481-33.673-19.61-34.911-0.317-0.318-4.276 7.774-5.336 10.884-0.389 1.166-0.954 3.569-1.236 5.3-1.908 12.014-1.414 17.315 2.861 30.281l1.943 5.971-0.635 1.095c-1.484 2.544-5.69 3.639-12.649 3.357-5.123-0.248-7.809-0.672-10.954-1.697-3.534-1.131-3.569-1.237-5.3-7.773-0.848-3.18-1.802-6.574-2.121-7.561-1.166-3.428-9.964-23.534-24.523-56.006-7.315-16.289-16.149-34.31-17.562-35.829-0.848-0.92-0.99-0.954-1.308-0.389-0.176 0.353-0.248 2.898-0.142 6.149 0.106 4.417 0.389 6.572 1.272 10.813 1.414 6.466 4.488 18.869 7.738 30.918 2.933 10.884 3.038 11.274 2.545 13.039-0.671 2.545-3.887 4.805-7.42 5.231-2.439 0.283-3.957-0.106-6.041-1.555-1.060-0.706-1.767-1.025-1.625-0.706 0.531 1.414 1.025 8.197 0.849 11.555-0.671 11.909-5.901 17.455-15.937 16.854-7.137-0.389-16.219-4.805-24.947-12.084-3.392-2.826-9.929-9.575-12.156-12.543-1.202-1.625-2.298-2.614-3.71-3.392-1.096-0.601-11.201-6.149-22.436-12.331l-20.458-11.201-4.275 4.205c-6.395 6.325-11.024 10.212-24.523 20.565-13.675 10.494-22.225 17.845-27.031 23.145-7.703 8.516-11.732 15.299-13.958 23.463-0.813 3.108-0.919 4.028-0.919 9.964 0 5.441 0.142 7.137 0.777 10.141 2.049 9.399 6.856 18.834 14.416 28.374 3.286 4.135 13.603 14.381 18.516 18.375 15.088 12.26 31.906 22.826 53.603 33.71 25.23 12.649 47.031 19.718 70.599 22.897 7.985 1.060 25.512 1.167 32.013 0.177 13.921-2.084 23.709-6.255 29.858-12.687 2.366-2.439 3.851-5.088 5.088-8.939 1.202-3.745 1.377-11.131 0.389-15.937-2.473-11.979-9.258-23.886-20.106-35.159-15.972-16.608-37.915-29.010-62.437-35.228-24.028-6.113-42.649-5.69-56.749 1.343-4.028 1.979-6.889 4.063-10.106 7.314-3.145 3.181-3.851 3.463-5.231 2.051-1.095-1.060-1.095-2.121-0.071-5.159 1.167-3.357 2.898-6.042 6.077-9.329 3.533-3.639 7.738-6.714 12.508-9.153 6.255-3.18 11.307-4.663 20.352-5.936 4.276-0.601 21.66-0.601 27.209 0 16.289 1.802 33.779 6.325 48.055 12.402 33.781 14.452 60.918 47.172 65.015 78.338 0.99 7.703 0.635 15.758-1.096 22.544-5.583 22.332-29.115 37.561-63.391 40.988-5.264 0.531-16.537 0.92-20.317 0.706zM305.81 202.233c0.777-0.601 0.92-0.99 0.92-2.614 0-3.922-2.084-12.12-6.255-24.523-2.509-7.598-11.555-31.094-14.735-38.373-3.957-9.045-7.774-14.663-9.964-14.663-3.356 0-5.548 7.42-5.548 18.727 0 12.861 2.579 23.922 8.445 35.865 2.685 5.512 6.183 11.413 8.905 15.017 6.007 8.022 14.875 13.18 18.233 10.565zM451.424 163.613c0.459-2.192 0.565-3.852 0.425-6.289-0.565-9.717-5.264-16.43-14.699-21.060-3.216-1.555-3.322-1.59-3.815-0.92-1.872 2.473 4.276 16.749 10.423 24.169 1.908 2.332 6.502 7.067 6.819 7.067 0.142 0 0.495-1.343 0.849-2.969zM214.256 146.547c1.202-5.478 1.484-7.915 1.449-13.887 0-9.399-1.52-15.865-5.618-24.204-6.996-14.134-20.106-25.759-33.567-29.716-3.674-1.096-10.319-1.555-12.72-0.883-5.654 1.52-8.127 7.067-6.784 15.161 2.544 15.512 13.215 28.020 38.055 44.663 5.971 3.993 17.667 11.165 18.268 11.201 0.212 0.036 0.637-1.025 0.919-2.332zM390.825 143.33c-0.99-7.031-5.583-13.709-13.428-19.469-4.276-3.18-7.35-4.63-8.445-3.957-0.353 0.247 0.283 1.131 2.474 3.569 8.127 9.010 10.282 11.555 14.17 16.395 2.332 2.861 4.417 5.548 4.63 5.901 0.706 1.166 0.99 0.142 0.601-2.439z" horiz-adv-x="684" />
<glyph unicode="&#xe616;" d="M306.227 401.935c-16.249-2.798-26.237-5.728-46.615-13.718-63.929-25.173-109.478-60.466-127.591-98.69-3.863-8.124-4.262-9.989-4.262-22.243 0-11.987 0.4-14.118 3.863-21.31 5.727-11.72 28.369-33.696 54.073-52.342 27.835-20.244 28.635-20.777 27.57-22.509-0.533-0.933-5.594-4.129-11.321-7.192-26.371-14.384-49.945-34.095-55.938-46.481-7.059-14.917-6.26-31.032 2.131-42.486 4.662-6.26 10.123-8.124 23.707-8.124 32.631 0 57.403 17.58 68.724 48.745 3.995 10.921 4.795 30.366 1.732 41.953-1.199 4.662-2.397 9.323-2.397 10.389-0.133 0.933 8.391 7.192 19.711 13.985 27.17 16.649 45.55 28.768 43.951 28.768-3.596 0-24.772-5.861-33.163-9.19-5.195-2.132-15.183-7.192-22.108-11.322s-13.985-7.858-15.583-8.257c-6.659-1.731-63.13 49.145-69.788 62.73-4.662 9.856-4.529 25.039 0.4 35.56 7.591 16.249 21.177 32.231 38.357 45.15 10.655 7.992 36.359 22.907 52.208 30.366 45.016 21.442 88.035 27.036 114.539 15.183 13.985-6.26 18.113-13.718 16.648-30.5-1.065-13.985-6.793-24.107-22.243-39.156-13.718-13.452-21.442-18.779-38.224-26.104-20.244-8.657-49.545-13.985-63.795-11.454-9.722 1.731-19.179 5.861-24.639 11.054-3.329 3.063-4.129 3.33-4.795 1.599-1.332-3.463 3.729-11.055 11.187-16.648 10.788-8.125 20.244-10.521 41.687-10.521 39.556 0.133 71.521 12.786 96.558 37.958 13.185 13.318 19.046 22.109 24.373 37.025 3.063 8.257 3.596 11.853 3.596 24.373 0 13.319-0.267 15.316-3.596 21.31-10.389 19.711-37.425 32.363-71.653 33.429-10.255 0.266-20.777-0.266-27.303-1.332zM227.381 154.744c3.063-15.183-4.394-36.759-17.314-49.811-12.519-12.786-33.297-18.913-39.156-11.587-3.863 4.795-3.329 14.917 1.331 24.772 3.729 7.858 14.118 19.046 25.571 27.703 7.192 5.327 25.571 15.716 27.17 15.183 0.666-0.266 1.865-3.063 2.397-6.26z" horiz-adv-x="534" />
<glyph unicode="&#xe617;" d="M152 176c0-57.438 46.562-104 104-104s104 46.562 104 104-46.562 104-104 104-104-46.562-104-104zM480 352h-112c-8 32-16 64-48 64h-128c-32 0-40-32-48-64h-112c-17.6 0-32-14.4-32-32v-288c0-17.6 14.4-32 32-32h448c17.6 0 32 14.4 32 32v288c0 17.6-14.4 32-32 32zM256 34c-78.425 0-142 63.574-142 142s63.575 142 142 142c78.426 0 142-63.575 142-142s-63.573-142-142-142zM480 256h-64v32h64v-32z" />
<glyph unicode="&#xe618;" d="M96 190.857v-221.715c5.227-0.748 10.567-1.143 16-1.143h16v224.001h-16c-5.433 0-10.773-0.395-16-1.143zM384 192v-224h16c5.434 0 10.773 0.395 16 1.143v221.714c-5.227 0.748-10.566 1.143-16 1.143h-16zM512 224c0 141.385-114.615 256-256 256s-256-114.615-256-256c0-30.709 5.414-60.153 15.328-87.437-9.736-16.601-15.328-35.926-15.328-56.563 0-44.677 26.163-83.239 64-101.216v202.432c-10.063-4.781-19.29-11.030-27.429-18.452-2.996 14.61-4.571 29.739-4.571 45.236 0 123.712 100.288 224 224 224s224-100.288 224-224c0-15.497-1.574-30.626-4.571-45.236-8.14 7.422-17.365 13.671-27.429 18.452v-202.432c37.838 17.977 64 56.539 64 101.216 0 20.637-5.592 39.962-15.328 56.563 9.914 27.284 15.328 56.728 15.328 87.437z" />
<glyph unicode="&#xe619;" d="M490.594 399.946c-71.816 10.325-151.166 16.054-234.593 16.054-83.43 0-162.778-5.729-234.597-16.054-13.765-53.863-21.404-113.375-21.404-175.946 0-62.57 7.639-122.083 21.404-175.945 71.819-10.326 151.168-16.055 234.597-16.055 83.427 0 162.776 5.729 234.593 16.055 13.766 53.862 21.406 113.375 21.406 175.945 0 62.571-7.64 122.083-21.406 175.946zM192.001 128v192l160-96-160-96z" />
<glyph unicode="&#xe61a;" d="M68.147 104.535c-37.598 0-68.146-30.667-68.146-68.038 0-37.577 30.55-67.901 68.146-67.901 37.733 0 68.247 30.324 68.247 67.901-0.001 37.371-30.512 68.038-68.247 68.038zM0.078 306.035v-98.129c63.892 0 123.979-24.986 169.229-70.256 45.192-45.159 70.141-105.518 70.141-169.65h98.561c-0.001 186.41-151.641 338.035-337.931 338.035zM0.194 480v-98.178c227.891 0 413.378-185.667 413.378-413.822h98.428c0 282.235-229.627 512-511.806 512z" />
<glyph unicode="&#xe61b;" d="M256 480c-141.385 0-256-114.615-256-256s114.615-256 256-256 256 114.615 256 256-114.615 256-256 256zM408.028 71.972c-19.759-19.758-42.756-35.266-68.354-46.093-6.503-2.75-13.107-5.164-19.8-7.246v38.367c0 20.167-6.917 35-20.75 44.5 8.667 0.833 16.625 2 23.875 3.5s14.917 3.667 23 6.5 15.333 6.208 21.75 10.125 12.583 9 18.5 15.25 10.875 13.333 14.875 21.25 7.167 17.417 9.5 28.5 3.5 23.292 3.5 36.625c0 25.833-8.417 47.833-25.25 66 7.667 20 6.833 41.75-2.5 65.25l-6.25 0.75c-4.333 0.5-12.125-1.333-23.375-5.5s-23.875-11-37.875-20.5c-19.833 5.5-40.417 8.25-61.75 8.25-21.5 0-42-2.75-61.5-8.25-8.833 6-17.208 10.958-25.125 14.875s-14.25 6.583-19 8-9.167 2.292-13.25 2.625-6.708 0.417-7.875 0.25-2-0.333-2.5-0.5c-9.333-23.667-10.167-45.417-2.5-65.25-16.833-18.167-25.25-40.167-25.25-66 0-13.333 1.167-25.542 3.5-36.625s5.5-20.583 9.5-28.5 8.958-15 14.875-21.25 12.083-11.333 18.5-15.25 13.667-7.292 21.75-10.125 15.75-5 23-6.5 15.208-2.667 23.875-3.5c-13.667-9.333-20.5-24.167-20.5-44.5v-39.115c-7.549 2.247-14.99 4.902-22.3 7.994-25.597 10.827-48.594 26.335-68.353 46.093-19.758 19.759-35.267 42.756-46.093 68.354-11.199 26.479-16.878 54.631-16.878 83.674s5.679 57.195 16.879 83.675c10.827 25.597 26.335 48.594 46.093 68.353s42.756 35.267 68.353 46.093c26.48 11.2 54.632 16.879 83.675 16.879s57.195-5.679 83.675-16.879c25.598-10.827 48.595-26.335 68.354-46.093 19.758-19.758 35.266-42.756 46.093-68.353 11.199-26.48 16.878-54.632 16.878-83.675s-5.679-57.195-16.879-83.675c-10.827-25.597-26.335-48.595-46.093-68.353z" />
<glyph unicode="&#xe61c;" d="M117.639 355.64c-25.396 0-47.242-8.403-65.542-25.208-19.043-17.926-28.57-40.33-28.57-67.218 0-17.926 5.188-34.731 15.647-50.416 9.337-14.563 19.090-23.903 31.889-28.012v-1.121c-12.799-5.224-18.483-18.295-18.483-39.209 0-16.062 5.686-28.011 18.483-35.854v-1.121c-35.327-11.573-51.496-33.047-51.496-64.415 0-27.267 11.874-47.244 35.033-59.939 18.295-10.086 41.789-15.127 70.173-15.127 69.085 0 103.703 28.941 103.703 86.832 0 36.223-26.661 58.441-80.064 66.658-12.323 1.863-21.643 6.348-27.991 13.445-4.854 4.854-7.271 9.709-7.271 14.563 0 13.816 7.479 21.848 22.41 24.088 22.779 3.357 41.364 13.912 55.743 31.648 14.375 17.74 21.565 38.559 21.565 62.458 0 7.469-2.259 15.498-5.244 24.086 9.709 2.244 16.525 4.297 21.646 6.166v57.696c-22.527-8.964-43.495-13.442-61.421-13.442-15.687 8.961-31.912 13.442-50.21 13.442zM123.801 76.115c31.372 0 47.052-9.521 47.052-28.57 0-20.168-14.377-30.246-43.132-30.246-32.862 0-49.293 9.711-49.293 29.127-0.001 19.795 15.122 29.689 45.373 29.689zM119.88 224c-23.527 0-35.293 12.882-35.293 38.654 0 27.631 11.766 41.453 35.293 41.453 11.201 0 19.979-4.298 26.326-12.884 5.229-7.845 7.845-17.18 7.845-28.011 0-26.139-11.393-39.212-34.171-39.212zM290.192 480c-10.828 0-20.070-4.107-27.727-12.324-7.657-8.218-11.485-18.108-11.485-29.688 0-11.205 3.829-20.91 11.485-29.129 7.654-8.217 16.896-12.32 27.727-12.32 10.455 0 19.514 4.104 27.17 12.32 7.656 8.219 11.48 17.924 11.48 29.129 0 11.58-3.824 21.472-11.48 29.688-7.659 8.217-16.715 12.324-27.17 12.324zM321.565 352.001h-63.303c0.748-7.168-0.32-18.021-0.32-35.57v-174.216c0-17.928 1.068-32.387 0.32-38.018h63.303c-0.75 8.188-2.697 22.334-2.697 41.379v171.973c-0.003 16.432 1.947 27.284 2.697 34.452zM461.168 157.9c-16.436 0-24.541 12.514-24.541 37.533v103.32h24.932c4.48 0 8.516 0.246 13.559-0.123 5.043-0.374 7.076-0.125 9.639-0.125v53.495h-48.129v23.808c0 8.961 1.408 17.151 2.527 22.271h-64.979c1.121-5.12 1.014-12.938 1.014-23.395v-22.684h-28.16v-53.494c7.682 1.12 14.545 1.678 19.398 1.678l8.762-0.559v-101.393c0-31.371 3.979-54.336 11.818-68.9 10.461-19.42 28.811-29.129 56.068-29.129 19.424 0 36.559 3.732 49.357 11.205v56.016c-10.237-6.35-19.691-9.524-31.265-9.524z" />
<glyph unicode="&#xe61d;" d="M432 320c-17.6 0-32-14.4-32-32v-128c0-17.6 14.4-32 32-32s32 14.4 32 32v128c0 17.6-14.4 32-32 32zM48 320c-17.6 0-32-14.4-32-32v-128c0-17.6 14.4-32 32-32s32 14.4 32 32v128c0 17.6-14.401 32-32 32zM96 112c0-26.51 21.49-48 48-48h16v-64c0-17.6 14.4-32 32-32s32 14.4 32 32v64h32v-64c0-17.6 14.401-32 32-32s32 14.4 32 32v64h16c26.51 0 48 21.49 48 48v176h-288v-176zM299.299 435.253l20.252 38.903c1.016 1.951 0.25 4.379-1.701 5.395s-4.379 0.25-5.395-1.701l-20.559-39.493c-16.099 6.224-33.597 9.643-51.896 9.643-18.298 0-35.796-3.419-51.898-9.643l-20.558 39.492c-1.016 1.951-3.443 2.717-5.395 1.701s-2.717-3.443-1.701-5.395l20.25-38.904c-45.315-20.509-78.12-63.792-83.81-115.252h286.22c-5.688 51.462-38.493 94.744-83.809 115.254zM176 344.8c-12.813 0-23.2 10.387-23.2 23.2s10.387 23.2 23.2 23.2 23.2-10.387 23.2-23.2c-0.001-12.813-10.387-23.2-23.2-23.2zM304 344.8c-12.813 0-23.201 10.387-23.201 23.2s10.389 23.2 23.201 23.2 23.199-10.387 23.199-23.2c0-12.813-10.386-23.2-23.199-23.2z" />
<glyph unicode="&#xe61e;" d="M0.175 224l-0.175 156.037 192 26.072v-182.109zM224 410.759l255.936 37.241v-224h-255.936zM479.999 192l-0.063-224-255.936 36.008v187.992zM192 8.082l-191.844 26.297-0.010 157.621h191.854z" />
<glyph unicode="&#xe61f;" d="M30.269 480l41.072-460.815 184.378-51.185 184.862 51.262 41.15 460.738h-451.462zM392.315 329.286h-216.27l5.151-57.875h205.984l-15.521-173.505-115.922-32.127-115.786 32.127-7.915 88.756h56.747l4.024-45.116 62.931-16.958 0.139 0.039 62.967 16.996 6.535 73.275h-195.87l-15.247 170.9h283.107l-5.054-56.512z" />
<glyph unicode="&#xe620;" d="M30.269 480l41.072-460.815 184.378-51.185 184.862 51.262 41.15 460.738h-451.462zM405.381 48.588l-148.613-41.188v-0.233l-0.388 0.117-0.391-0.117v0.233l-148.611 41.188-35.121 393.743h368.248l-35.124-393.743zM325.377 214.898l-6.535-73.276-63.105-17.035-62.931 16.958-4.025 45.117h-56.745l7.915-88.756 116.038-32.088 115.671 32.088 15.52 173.506h-205.983l-5.151 57.874h216.267l5.056 56.513h-283.109l15.249-170.901z" />
<glyph unicode="&#xe621;" d="M76.194 455.739l-17.18-85.963h349.874l-10.942-55.527h-350.094l-16.946-85.949h349.842l-19.509-98.032-141.006-46.711-122.2 46.711 8.364 42.521h-85.949l-20.448-103.176 202.113-77.352 233.003 77.352 76.884 386.126z" />
<glyph unicode="&#xe622;" d="M151.007 403.945c-0.2-0.699-2.695-7.586-5.389-15.271s-7.884-22.457-11.577-32.935c-3.694-10.379-7.884-22.557-9.483-26.947-2.794-7.686-10.978-30.84-54.593-155.198-11.279-32.137-21.558-60.482-22.856-63.178-4.292-8.483-13.972-13.673-25.251-13.673h-5.090v-27.946h119.767v27.746l-7.486 0.399c-6.587 0.3-7.686 0.699-10.479 3.293-3.492 3.394-4.991 7.685-3.892 11.978 0.399 1.696 3.993 12.576 7.884 24.253l7.186 21.159h116.074l7.785-22.656c4.292-12.576 7.686-24.353 7.686-26.348 0-7.387-6.288-11.877-16.468-11.877h-6.488v-27.946h120.766v27.647l-7.387 0.498c-11.378 0.699-18.663 5.090-23.156 13.973-1.298 2.594-11.378 30.241-22.257 61.38-10.978 31.139-33.635 95.813-50.402 143.521-16.866 47.808-30.839 87.43-31.040 88.129-0.599 1.796-73.258 1.796-73.856 0zM207.798 273.598c10.679-31.839 19.063-58.187 18.764-58.485-0.698-0.798-76.551-0.798-77.249 0-0.299 0.3 8.185 26.849 18.863 58.885 10.679 32.137 19.661 58.187 19.862 57.987 0.299-0.2 9.183-26.548 19.762-58.387zM344.231 255.233c-0.399-1.298-4.292-12.175-8.483-24.353l-7.785-21.957 7.185-20.461c3.993-11.178 7.685-21.458 8.185-22.856 0.898-2.195 2.396 1.696 11.378 28.346 5.589 16.866 10.479 31.040 10.779 31.239 0.699 0.698-0.599 4.292 12.974-36.628 6.288-18.963 11.678-35.231 12.076-36.13 0.699-1.696-0.699-1.796-20.361-1.796-16.168 0-21.059-0.3-21.059-1.198 0.099-0.699 2.295-7.087 4.891-14.272l4.79-12.974 41.719-0.998 4.69-13.474c2.594-7.387 4.69-14.87 4.69-16.567 0.099-4.091-2.594-6.288-7.985-6.687l-4.392-0.2-0.3-7.685-0.3-7.785h64.974v15.669l-4.69 0.099c-4.991 0.099-8.285 1.897-11.477 6.288-0.998 1.298-14.771 39.224-30.541 84.237l-28.745 81.841-20.66 0.299-20.66 0.2-0.898-2.196z" />
<glyph unicode="&#xe623;" d="M192 186.667c0 0 101.972 61.18 159.383 37.013 11.901 18.134 23.624 37.668 35.101 57.611-56.163 13.76-130.484 1.376-130.484 1.376s95.106 57.061 153.333 39.2c11.675 21.054 23.027 41.821 33.978 61.152-46.388 3.134-91.311-4.352-91.311-4.352s59.574 35.744 113.289 41.799c16.899 27.43 32.585 48.94 46.711 59.534-280.5 0-448-320-512-512h32l96 160c0 0 32-32 128 0 22.737 7.579 45.474 28.626 67.786 56.967-56.308 14.277-131.786 1.7-131.786 1.7z" />
<glyph unicode="&#xe624;" d="M367.497 77.313c-9.476 1.494-9.692 27.327-9.692 27.327s27.844 27.328 33.912 64.076c16.326 0 26.407 39.069 10.082 52.814 0.681 14.47 20.984 113.588-81.799 113.588s-82.479-99.118-81.799-113.588c-16.327-13.745-6.244-52.814 10.081-52.814 6.067-36.748 33.913-64.076 33.913-64.076s-0.216-25.833-9.692-27.327c-30.524-4.816-144.503-54.658-144.503-109.313h384c0 54.655-113.979 104.497-144.503 109.313zM172.027 68.595c22.047 13.575 48.813 26.154 70.769 33.712-7.876 11.216-16.647 26.468-22.165 44.531-7.703 6.283-13.972 15.266-17.999 26.301-4.033 11.052-5.561 23.426-4.304 34.842 0.902 8.196 3.239 15.833 6.825 22.544-2.175 23.293-3.707 69.017 26.224 102.366 11.607 12.933 26.278 22.23 43.85 27.843-3.137 32.38-19.58 70.385-83.227 70.385-102.782 0-82.479-99.118-81.799-113.588-16.327-13.745-6.244-52.814 10.081-52.814 6.067-36.748 33.913-64.076 33.913-64.076s-0.216-25.833-9.692-27.327c-30.524-4.817-144.503-54.659-144.503-109.314h164.798c2.355 1.537 4.753 3.070 7.229 4.595z" />
<glyph unicode="&#xe625;" d="M181.861 118.974l20.649 28.908-22.627 22.628-28.909-20.648c-5.361 2.997-11.102 5.387-17.133 7.096l-5.841 35.042h-32l-5.84-35.043c-6.031-1.709-11.772-4.099-17.133-7.096l-28.909 20.649-22.628-22.628 20.649-28.908c-2.997-5.36-5.387-11.103-7.096-17.133l-35.043-5.841v-32l35.043-5.841c1.709-6.030 4.099-11.772 7.096-17.133l-20.649-28.908 22.627-22.628 28.909 20.648c5.361-2.997 11.102-5.387 17.133-7.096l5.841-35.042h32l5.84 35.043c6.031 1.709 11.772 4.099 17.133 7.096l28.909-20.648 22.627 22.628-20.649 28.908c2.997 5.36 5.387 11.103 7.096 17.133l35.044 5.84v32l-35.043 5.841c-1.709 6.030-4.099 11.772-7.096 17.133zM112 48c-17.674 0-32 14.327-32 32s14.326 32 32 32 32-14.327 32-32-14.326-32-32-32zM512 288v32l-33.691 6.125c-0.621 4.023-1.416 7.989-2.362 11.895l28.779 18.55-12.246 29.564-33.472-7.234c-2.107 3.455-4.363 6.81-6.746 10.065l19.503 28.171-22.628 22.627-28.171-19.503c-3.256 2.383-6.61 4.638-10.065 6.747l7.234 33.472-29.564 12.247-18.55-28.779c-3.906 0.946-7.872 1.741-11.895 2.362l-6.126 33.691h-32l-6.126-33.691c-4.023-0.621-7.988-1.416-11.895-2.362l-18.549 28.779-29.564-12.246 7.234-33.472c-3.455-2.108-6.81-4.364-10.065-6.747l-28.171 19.503-22.627-22.627 19.503-28.171c-2.383-3.255-4.639-6.61-6.747-10.065l-33.472 7.234-12.246-29.564 28.779-18.55c-0.946-3.906-1.741-7.871-2.362-11.895l-33.692-6.126v-32l33.691-6.125c0.621-4.023 1.416-7.989 2.362-11.895l-28.779-18.55 12.246-29.564 33.472 7.234c2.108-3.455 4.364-6.809 6.747-10.065l-19.503-28.171 22.627-22.628 28.171 19.503c3.255-2.383 6.61-4.638 10.065-6.746l-7.234-33.472 29.564-12.246 18.551 28.779c3.905-0.946 7.871-1.741 11.894-2.362l6.126-33.692h32l6.126 33.691c4.022 0.621 7.988 1.416 11.895 2.362l18.55-28.779 29.564 12.246-7.234 33.472c3.455 2.108 6.81 4.363 10.065 6.746l28.171-19.503 22.628 22.628-19.503 28.171c2.383 3.256 4.638 6.61 6.746 10.065l33.472-7.234 12.246 29.565-28.779 18.55c0.946 3.906 1.741 7.871 2.362 11.895l33.691 6.125zM336 234.4c-38.439 0-69.6 31.161-69.6 69.6s31.16 69.6 69.6 69.6 69.6-31.161 69.6-69.6c0-38.439-31.16-69.6-69.6-69.6z" />
<glyph unicode="&#xf007;" d="M384 192h-64c-17 0-32-16-32-32h128c0 17-16 32-32 32zM356.5 400c-83.5 0-104.5-16-116.5-28-12 12-33 28-116.5 28s-123.5-23-123.5-39v-293c14.5 8 59.5 24 107 28 57.5 4.5 117-4.5 117-16 0-8 4-15.5 15.5-16 0 0 0 0 0.5 0 0 0 0 0 0.5 0 11.5 0.5 15.5 8 15.5 16 0 11.5 59.5 20.5 117 16 47-3.5 92.5-20 107-28v293c0 16-40 39-123.5 39zM224 114c-15 8-51.5 14-96 14s-85-6-96-13.5c0 0 0 205.5 0 221.5s32 29.5 96 29.5 96-13.5 96-29.5 0-222 0-222zM448 114.5c-11 7.5-51.5 13.5-96 13.5s-81-6-96-14c0 0 0 206 0 222s32 29.5 96 29.5 96-13.5 96-29.5 0-221.5 0-221.5zM384 256h-64c-17 0-32-16-32-32h128c0 17-16 32-32 32zM384 320h-64c-17 0-32-16-32-32h128c0 17-16 32-32 32zM160 256h-64c-16 0-32-15-32-32h128c0 16-15 32-32 32zM160 192h-64c-16 0-32-15-32-32h128c0 16-15 32-32 32zM160 320h-64c-16 0-32-15-32-32h128c0 16-15 32-32 32z" />
<glyph unicode="&#xf015;" d="M192 448h-128l-64-64v-128l256-256 192 192-256 256zM32 272v96l48 48h96l224-224-144-144-224 224zM224 320l-96-96 128-128 96 96-128 128zM176 224l48 48 80-80-48-48-80 80zM160 336c0 26.5-21.5 48-48 48s-48-21.5-48-48 21.5-48 48-48 48 21.5 48 48zM112 320c-8.828 0-16 7.172-16 16s7.172 16 16 16 16-7.172 16-16-7.172-16-16-16z" horiz-adv-x="448" />
<glyph unicode="&#xf03a;" d="M320 384l-192-192-64 64-64-64 128-128 256 256-64 64z" horiz-adv-x="384" />
<glyph unicode="&#xf096;" d="M192 0c-106.016 0-192 28.688-192 64 0 19.313 0 40.438 0 64 0 5.563 2.781 10.844 6.781 16 21.407-27.563 95.844-48 185.219-48s163.813 20.438 185.219 48c4-5.156 6.781-10.438 6.781-16 0-18.531 0-38.188 0-64 0-35.313-86-64-192-64zM192 128c-106.016 0-192 28.688-192 64 0 19.328 0 40.422 0 64 0 3.39 1.281 6.688 3 9.953v0c0.969 2.047 2.25 4.063 3.781 6.047 21.407-27.547 95.844-48 185.219-48s163.813 20.453 185.219 48c1.531-1.985 2.813-4 3.781-6.047v0c1.719-3.265 3-6.563 3-9.953 0-18.531 0-38.172 0-64 0-35.313-86-64-192-64zM192 256c-106.016 0-192 28.672-192 64 0 10.11 0 20.797 0 32 0 10.172 0 20.735 0 32 0 35.328 85.984 64 192 64 106 0 192-28.672 192-64 0-9.985 0-20.578 0-32 0-9.797 0-20.125 0-32 0-35.328-86-64-192-64zM192 416c-70.688 0-128-14.297-128-32s57.313-32 128-32 128 14.297 128 32-57.313 32-128 32z" horiz-adv-x="384" />
<glyph unicode="&#xf0c4;" d="M240 448l-240-64v-288l240-64 240 64v288l-240 64zM31.938 119.533l-0.188 216.467 192.249-51.266 0-216.417-192.062 51.216zM31.75 368l80.127 21.367 208.123-55.567-80-21.334-208.25 55.534zM448.063 119.533l-192.062-51.216 0 216.417 63.999 17.066v-78l64 17.067v77.999l64.25 17.134-0.188-216.467zM384 350.866v0.063l-208.133 55.502 64.133 17.102 208.25-55.533-64.25-17.134z" />
<glyph unicode="&#xf0c8;" d="M415.5 416.5h-384c-17.675 0-32-14.325-32-32v-320c0-17.675 14.325-32 32-32h384c17.675 0 32 14.325 32 32v320c0 17.675-14.325 32-32 32zM63.5 192.5l64 64-64 64 32 32 96-96-96-96-32 32zM319.5 160.5h-128v32h128v-32z" horiz-adv-x="448" />
<glyph unicode="&#xf0c9;" d="M475.077 384h-438.154c-20.36 0-36.923-16.563-36.923-36.923v-246.154c0-20.361 16.564-36.923 36.923-36.923h438.154c20.361 0 36.923 16.563 36.923 36.923v246.154c0 20.36-16.563 36.923-36.923 36.923zM288 128.063l-64-0.063v96l-48-61.538-48 61.538v-96h-64v192h64l48-64 48 64 64 0.063v-192zM383.546 112.063l-79.546 111.938h48v96h64v-96h48l-80.454-111.938z" />
</font>
</defs>
</svg>
